<svg xmlns="http://www.w3.org/2000/svg" viewBox="0 0 300 300" xml:space="preserve"><path fill="#FFF" d="M287.6 257c-28-28.4-56.2-56.5-84.4-84.8l-22.5-22.6c35.4-35.7 70.7-71.4 106.2-106.9 9.6-9.6 11.9-18.5 1.7-29.4-15.3-16.1-22-16.5-38.1-.3-34.2 34.5-68.5 69-102.7 103.5-33.7-34-67.6-67.8-101.6-101.4C41.1 10 31.3 5 25.2 6.4 3.7 11.7-1.1 33 14.5 48.8 47.9 82.5 81.4 116 114.9 149.6L36 229.1C26.9 238.3 17.1 247 9 257c-3.7 4.6-7 12.6-5.5 17.7 6 21.4 27 26.2 42.6 10.5 34-34.1 67.9-68.3 101.8-102.5 35.6 35.8 71.1 71.5 106.8 107.2 13.5 13.5 19.4 13.5 32.5.7 13.8-13.7 14.1-19.7.4-33.6z"/></svg>