<svg version="1.0" xmlns="http://www.w3.org/2000/svg" viewBox="0 0 300 300" xml:space="preserve"><path d="M262.7 219c-2 .1-3.7.3-5.3.3h-78.7c-6.4 0-7.2-.7-7.3-6.3-.2-6.3 1.6-8.4 7.5-8.5 21.2 0 42.5 0 63.7.1 6.2 0 7.2-.9 7.2-7.1V50.6c0-7.4-1-8.3-8.3-8.3H183c-16.8 0-27.1 10.2-27.1 26.8 0 48.5 0 96.9.1 145.4 0 3.9-1.2 5-5 5-10.7 0-10.7.1-10.7-10.6V68.2c0-15.9-10-25.8-26.2-25.8H55.6c-7.6 0-9 1.4-9 9v145.4c0 6.4 1.3 7.8 7.9 7.8h62.7c7.4 0 11.4 6.2 7.8 12.7-.7 1.3-3.7 2-5.7 2-18 .1-35.9.1-53.9.1H32.8V28.2h5.7c26.2 0 52.5.3 78.7-.2 8.4-.1 15 2.5 21.3 7.3 3.1 2.4 6.2 6.1 9.6 6.5 3 .3 6.4-3.3 9.5-5.3 9.3-5.6 18.7-9 30.1-8.6 24.8.8 49.7.3 75 .3V219zM32.3 237.9h8.3c27.3 0 54.5.3 81.8 0 8.4-.1 15.1 2.9 20.9 8.3 3.4 3.1 6.1 3.7 9.7.1 4.8-4.8 10.5-8.2 17.8-8.2h92.4c0 3.5.4 7-.2 10.4-.2 1.2-2.7 2.7-4.3 2.8-7.8.3-15.5.1-23.3.1h-50.7c-15.1 0-22.4 4.9-28.3 18.5-.5 1.2-2.3 2.3-3.6 2.6-1.8.5-3.8-.1-5.7.2-5.1.6-7.8-1.1-9-6.5-1.8-7.8-8.3-11.4-15.3-13.7-3.2-1-6.8-1.1-10.2-1.1-25.2 0-50.4 0-75.6.2-3.3 0-4.8-1-4.6-4.3 0-2.9-.1-5.8-.1-9.4z" fill="#AB8E58"/></svg>