<svg version="1.0" xmlns="http://www.w3.org/2000/svg" viewBox="0 0 160.5 84.6" xml:space="preserve"><path d="M.3 40.4h10.3v3.1h.1c2.2-2.7 5.3-3.7 9.2-3.7 3 0 6.3 1.3 7.6 3.6.4-.3 2.6-3.6 9.5-3.6 7.2 0 9.6 4.1 9.6 7.9v16H35.9V51.1c0-2.2-.3-4.2-3.5-4.2-2.7 0-3.6 1.8-3.6 4.2v12.6H18.1V51.1c0-2.2-.3-4.2-3.5-4.2-2.7 0-3.6 1.8-3.6 4.2v12.6H.3V40.4zm62.4 23.9c-10.5 0-15.3-5.8-15.3-12.3 0-6.5 4.7-12.2 15.3-12.2C73.2 39.8 78 45.5 78 52c0 6.5-4.8 12.3-15.3 12.3m0-18c-4 0-4.6 3.3-4.6 5.8s.5 5.8 4.6 5.8c4 0 4.6-3.3 4.6-5.8 0-2.6-.6-5.8-4.6-5.8m16.2-5.9h10.3v3.7h.1c1.7-2.8 4-4.3 7.9-4.3 1.1 0 2.1.1 3.1.4V48c-1.1-.3-2-.6-4.2-.6-4.2 0-6.5 2.1-6.5 7.1v9.2H78.9V40.4zm39.6 6.8c-.1-.8-.5-1.3-1.2-1.8-.6-.4-1.5-.7-2.4-.7-1.5 0-3.2.3-3.2 1.8 0 .7.6 1 1.2 1.2 1.8.6 5.8.8 9.4 1.8 3.6.9 6.7 2.7 6.7 6.5 0 6.5-7.4 8.2-14.2 8.2-6.6 0-13.8-2.2-14-8.2H111c.1.8.5 1.5 1.3 2.1.5.4 1.6.7 2.9.7 1.4 0 3.6-.4 3.6-1.8 0-1.3-.9-1.8-5.9-2.5-8.1-1.2-11.4-3.3-11.4-7.3 0-5.9 7.6-7.4 13.2-7.4 6 0 13.3 1.4 13.6 7.4h-9.8zm39.9-6.7-2.6 2.5c2.8 2.3 4.2 5.5 4.2 8.9 0 6.5-4.7 12.3-15.3 12.3-3.7 0-6.6-.7-9-1.9l-3 2.9-1.9-1.5 2.9-2.7c-2.9-2.3-4.3-5.6-4.3-9 0-6.5 4.7-12.2 15.3-12.2 3.7 0 6.7.7 9.1 2l2.7-2.6 1.9 1.3zm-16.8 16.2c.6.7 1.6 1.1 3.1 1.1 4 0 4.6-3.3 4.6-5.8 0-.8-.1-1.6-.3-2.4l-7.4 7.1zm6.2-9.3c-.6-.7-1.7-1.2-3.2-1.2-4 0-4.6 3.3-4.6 5.8 0 .9.1 1.8.3 2.6l7.5-7.2z" class="logo-title" fill="#FFF"/><path d="M38 33.8v-3.6h1c.7 0 .9.4.9.9 0 .4-.1.6-.5.8.5.1.6.4.6.8 0 .7-.4 1.1-1.1 1.1H38zm.4-2h.4c.5 0 .8-.1.8-.6 0-.4-.2-.6-.8-.6h-.4v1.2zm.7 1.7c.4 0 .6-.2.6-.7 0-.7-.5-.7-.9-.7h-.4v1.3h.7zm1.3-2.3h.4l.6 2.3.6-2.3h.4l-.8 2.5c0 .2-.2.5-.2.7-.1.2-.3.3-.6.3h-.3v-.3c.1 0 .2.1.3.1.4 0 .4-.3.5-.5l-.9-2.8zm5.4 2.6s-.1 0 0 0c-.4 0-.5 0-.6-.4-.1.2-.3.4-.6.4-.5 0-.7-.3-.7-.8 0-.1 0-.5.4-.6.2-.1.8-.3.8-.3.1-.1.1-.2.1-.3 0-.3-.1-.4-.4-.4-.4 0-.4.2-.4.5H44c0-.6.3-.8.8-.8.8 0 .7.7.7.7v1.5c0 .1 0 .2.1.2h.2v.3zm-.6-1.4-.6.3c-.2.1-.2.3-.2.5 0 .3.1.4.4.4.1 0 .5-.1.5-.5v-.7zm1.5 2.3h-.4v-3.6h.4v.3c.1-.2.3-.4.6-.4.7 0 .9.7.9 1.2 0 .8-.1 1.6-.9 1.6-.3 0-.4-.1-.6-.3v1.2zm.5-3.3c-.5 0-.5.7-.5 1.1 0 .4 0 1.1.5 1.1.4 0 .5-.4.5-1.1 0-.4 0-1.1-.5-1.1zm1.9 3.3h-.4v-3.6h.4v.3c.1-.2.3-.4.6-.4.7 0 .9.7.9 1.2 0 .8-.1 1.6-.9 1.6-.3 0-.4-.1-.6-.3v1.2zm.5-3.3c-.5 0-.5.7-.5 1.1 0 .4 0 1.1.5 1.1.4 0 .5-.4.5-1.1.1-.4 0-1.1-.5-1.1zm2.5 2.5c-.6 0-1-.3-1-1.5 0-.8.3-1.3 1-1.3s1 .5 1 1.3c-.1 1.2-.4 1.5-1 1.5zm0-2.5c-.4 0-.6.3-.6 1.1 0 .6.1 1.1.6 1.1s.6-.4.6-1.1c-.1-.8-.2-1.1-.6-1.1zm1.5-.7v-.5h.4v.5h-.4zm0 3.1v-2.7h.4v2.7h-.4zm1.5-2.3c.2-.2.4-.4.7-.4.4 0 .7.2.7.7v2.1h-.4V32c0-.3-.1-.5-.4-.5-.1 0-.3.1-.4.1-.2.1-.2.3-.2.5v1.8h-.4v-2.7h.4v.3zm2.5-.3h.5v.3h-.4v1.8c0 .1 0 .2.2.2h.3v.3h-.4c-.2 0-.4 0-.4-.4v-1.9H57v-.3h.4v-.7h.4v.7zm1.3 2.6h-.4v-2.7h.4v.3c.1-.2.4-.4.6-.4.3 0 .5.2.6.4.2-.3.4-.4.7-.4.2 0 .4.1.5.2.2.2.2.5.2.6v1.9h-.4v-1.9c0-.3-.1-.5-.4-.5-.1 0-.3.1-.4.1-.2.1-.2.3-.2.5v1.8h-.4v-1.9c0-.3-.1-.5-.4-.5-.1 0-.3.1-.4.1-.2.1-.2.3-.2.5v1.9zm5-.9c0 .5-.2 1-.8 1-.5 0-.9-.3-.9-1.4 0-.6.2-1.4.9-1.4.9 0 .8.8.8 1.4h-1.3c0 .4-.1 1 .5 1 .4 0 .5-.3.4-.6h.4zm-.4-.7c0-.3 0-.8-.4-.8s-.5.5-.5.8h.9zm1.4-.7c.2-.2.4-.4.7-.4.4 0 .7.2.7.7v2.1h-.4V32c0-.3-.1-.5-.4-.5-.1 0-.3.1-.4.1-.2.1-.2.3-.2.5v1.8h-.4v-2.7h.4v.3zm2.5-.3h.5v.3h-.4v1.8c0 .1 0 .2.2.2h.3v.3h-.4c-.2 0-.4 0-.4-.4v-1.9h-.4v-.3h.2v-.7h.4v.7zm2.6 0h.5v.3H70v1.8c0 .1 0 .2.2.2h.3v.3H70c-.2 0-.4 0-.4-.4v-1.9h-.4v-.3h.4v-.7h.4v.7zm1.8 2.7c-.6 0-1-.3-1-1.5 0-.8.3-1.3 1-1.3s1 .5 1 1.3c0 1.2-.4 1.5-1 1.5zm0-2.5c-.4 0-.6.3-.6 1.1 0 .6.1 1.1.6 1.1s.6-.4.6-1.1c0-.8-.2-1.1-.6-1.1zm2.5-1.2h2.3v.4h-.9v3.2h-.4v-3.2h-.9v-.4zm3.1 3.6H77v-3.6h.4v1.2c.2-.2.4-.4.7-.4.4 0 .7.2.7.7v2.1h-.4v-1.9c0-.3-.1-.5-.4-.5-.1 0-.3.1-.4.1-.2.1-.2.3-.2.5v1.8zm3.7-.9c0 .5-.2 1-.8 1-.5 0-.9-.3-.9-1.4 0-.6.2-1.4.9-1.4.9 0 .8.8.8 1.4h-1.3c0 .4-.1 1 .5 1 .4 0 .5-.3.4-.6h.4zm-.4-.7c0-.3 0-.8-.4-.8s-.5.5-.5.8h.9zm2.7 1.6H83v-3.6h.9c.8 0 1.3.2 1.2 1 0 .4-.3.7-.7.8.5 0 .6.2.6.7 0 .3 0 .5.1.8 0 .1 0 .2.1.2v.1h-.5c-.1-.2-.1-.7-.1-.9 0-.4-.1-.7-.6-.7h-.7v1.6zm0-1.9h.6c.2 0 .7 0 .7-.7 0-.6-.5-.6-.8-.6h-.6v1.3zm3.4 2c-.6 0-1-.3-1-1.5 0-.8.3-1.3 1-1.3s1 .5 1 1.3c-.1 1.2-.4 1.5-1 1.5zm0-2.5c-.4 0-.6.3-.6 1.1 0 .6.1 1.1.6 1.1s.6-.4.6-1.1c-.1-.8-.2-1.1-.6-1.1zm1.2-.2h.4l.6 2.3.6-2.3h.4l-.8 2.5c0 .2-.2.5-.2.7-.1.2-.3.3-.6.3h-.3v-.3c.1 0 .2.1.3.1.4 0 .4-.3.5-.5l-.9-2.8zm4.2 2.6s-.1 0 0 0c-.4 0-.5 0-.6-.4-.1.2-.3.4-.6.4-.5 0-.7-.3-.7-.8 0-.1 0-.5.4-.6.2-.1.8-.3.8-.3.1-.1.1-.2.1-.3 0-.3-.1-.4-.4-.4-.3 0-.4.2-.4.5h-.3c0-.6.3-.8.8-.8.8 0 .7.7.7.7v1.5c0 .1 0 .2.1.2h.2v.3zm-.6-1.4-.6.3c-.2.1-.2.3-.2.5 0 .3.1.4.4.4.1 0 .5-.1.5-.5v-.7zm1.1 1.4v-3.6h.4v3.6h-.4zm2.4 0v-3.6h1c1.1 0 1.3.9 1.3 1.8s-.2 1.8-1.2 1.8h-1.1zm.4-.3h.7c.6 0 .8-.4.8-1.5 0-.8-.1-1.4-.8-1.4h-.7v2.9zm4.2.3s-.1 0 0 0c-.4 0-.5 0-.6-.4-.1.2-.3.4-.6.4-.5 0-.7-.3-.7-.8 0-.1 0-.5.4-.6.2-.1.8-.3.8-.3.1-.1.1-.2.1-.3 0-.3-.1-.4-.4-.4-.3 0-.4.2-.4.5H98c0-.6.3-.8.8-.8.8 0 .7.7.7.7v1.5c0 .1 0 .2.1.2h.2v.3zm-.6-1.4-.6.3c-.2.1-.2.3-.2.5 0 .3.1.4.4.4.1 0 .5-.1.5-.5v-.7zm1.5-.9c.2-.2.4-.4.7-.4.4 0 .7.2.7.7v2.1h-.4V32c0-.3-.1-.5-.4-.5-.1 0-.3.1-.4.1-.2.1-.2.3-.2.5v1.8h-.4v-2.7h.4v.3zm2-.8v-.5h.4v.5h-.4zm0 3.1v-2.7h.4v2.7h-.4zm2.3-1.9c0-.3-.1-.5-.4-.5-.3 0-.4.1-.4.4 0 .3.3.4.6.5.4.2.8.3.8.8s-.4.8-.9.8c-.2 0-.5-.1-.7-.3-.2-.2-.2-.4-.2-.6h.4c0 .3.1.5.5.5.3 0 .5-.1.5-.4 0-.4-.4-.4-.7-.5-.4-.2-.7-.3-.7-.8s.3-.8.8-.8.8.2.8.8h-.4zm1.4 1.9h-.4v-3.6h.4v1.2c.2-.2.4-.4.7-.4.4 0 .7.2.7.7v2.1h-.4v-1.9c0-.3-.1-.5-.4-.5-.1 0-.3.1-.4.1-.2.1-.2.3-.2.5v1.8zm5-2.5c0-.4-.2-.8-.7-.8-.7 0-.7 1-.7 1.5s0 1.6.7 1.6c.5 0 .6-.4.6-.8v-.2h.4v.2c0 .3 0 .5-.2.8-.2.3-.4.4-.8.4-1.1 0-1.2-1.1-1.2-1.9 0-.8.1-1.8 1.2-1.8.7 0 1.1.5 1 1.1h-.3zm1.9 2.6c-.6 0-1-.3-1-1.5 0-.8.3-1.3 1-1.3s1 .5 1 1.3c-.1 1.2-.4 1.5-1 1.5zm0-2.5c-.4 0-.6.3-.6 1.1 0 .6.1 1.1.6 1.1s.6-.4.6-1.1c-.1-.8-.2-1.1-.6-1.1zm2.9 2.1c-.1.3-.4.4-.7.4-.4 0-.7-.2-.7-.7v-2.1h.4v2.1c0 .2.1.3.3.3.2 0 .4-.1.5-.2.1-.1.1-.3.1-.5v-1.7h.4v2.7h-.4v-.3zm1.5-1.9c.2-.3.4-.5.8-.5v.4c-.5-.1-.8.2-.8.7v1.6h-.4v-2.7h.4v.5zm1.7-.4h.5v.3h-.5v1.8c0 .1 0 .2.2.2h.3v.3h-.4c-.2 0-.4 0-.4-.4v-1.9h-.4v-.3h.4v-.7h.4v.7z" fill="#FFF"/><path fill="#8D7646" d="M79.1 19.4c-4 0-7.6.8-9 1.4-.3.1-.5.1-.6 0-.1-.1-.2-.4.2-.5 2.5-1.2 7.5-1.6 9.4-1.6h.1c1.9 0 7 .4 9.4 1.6.4.2.3.4.2.5-.1.1-.3.1-.6 0-1.5-.6-5.1-1.4-9.1-1.4zm.1 4.3c-4 0-7.5.5-9 .9-.4.1-.5.1-.6 0-.1-.1-.2-.4.2-.5 2.6-.9 7.5-1.1 9.4-1.1h.1c1.9 0 7.2.4 9.4 1.1.4.1.3.4.2.5-.1.1-.3.1-.6 0-1.5-.3-5.1-.9-9.1-.9zm2.2-12.5s1.5.2 3.2-.7c1.4-.7 2.2-1.3 2.3-1.1.2.2-1.3 1-2 1.4-.7.3-2.1.8-3.5.4m-.3 2c-.3 0-.1-.2.1-.2.3.1 2.1.7 2.5 1 .1.1 0 .2-.1.2-.2-.1-2.1-.9-2.5-1m.1-3.6c.1 0 .2-.1.2-.2s-.1-.2-.2-.2-.2.1-.2.2c.1.2.1.2.2.2m.8-.4c.1 0 .2-.1.2-.2s-.1-.2-.2-.2-.2.1-.2.2.1.2.2.2m.8-.6c.2 0 .3-.1.3-.3 0-.2-.1-.3-.3-.3-.2 0-.3.1-.3.3-.1.2.1.3.3.3m.8-.9c.2 0 .4-.2.4-.4s-.2-.4-.4-.4-.4.2-.4.4.2.4.4.4m1.1-.9c.3 0 .5-.2.5-.5s-.2-.5-.5-.5-.5.2-.5.5c.1.3.3.5.5.5m1.7-.4c.3 0 .5-.2.5-.5s-.2-.5-.5-.5-.5.2-.5.5.2.5.5.5m1.5.4c.3 0 .6-.3.6-.6s-.3-.6-.6-.6-.6.3-.6.6.3.6.6.6m1.4 1.1c.3 0 .6-.3.6-.6s-.3-.6-.6-.6-.6.3-.6.6c-.1.4.2.6.6.6m.6 1.8c.3 0 .6-.3.6-.6s-.3-.6-.6-.6-.6.3-.6.6c-.1.3.2.6.6.6m-.3 1.5c.3 0 .5-.2.5-.5s-.2-.5-.5-.5-.5.2-.5.5c.1.3.3.5.5.5m-.6 1c.2 0 .4-.2.4-.4s-.2-.4-.4-.4-.4.2-.4.4c0 .3.2.4.4.4m-.8.8c.1 0 .3-.1.3-.3 0-.1-.1-.3-.3-.3-.1 0-.3.1-.3.3 0 .1.2.3.3.3"/><path fill="#8D7646" d="M82.3 11c.1 0 .2-.1.2-.2s-.1-.2-.2-.2-.2.1-.2.2.1.2.2.2m1.1-.4c.1 0 .2-.1.2-.2s-.1-.2-.2-.2-.2.1-.2.2.1.2.2.2m1.1-.5c.2 0 .3-.1.3-.3s-.1-.3-.3-.3c-.2 0-.3.1-.3.3s.1.3.3.3m1.1-.7c.2 0 .3-.1.3-.3s-.1-.3-.3-.3c-.2 0-.3.1-.3.3s.2.3.3.3m1.3-.7c.2 0 .4-.2.4-.4s-.2-.4-.4-.4-.4.2-.4.4.2.4.4.4m4.2-.6c.4 0 .7-.3.7-.7s-.3-.7-.7-.7c-.4 0-.7.3-.7.7s.3.7.7.7m1.6.8c.4 0 .7-.3.7-.7 0-.4-.3-.7-.7-.7-.4 0-.7.3-.7.7 0 .4.3.7.7.7m1.2 1.5c.3 0 .6-.3.6-.6s-.3-.6-.6-.6-.6.3-.6.6.3.6.6.6m.2 1.4c.3 0 .5-.2.5-.5s-.2-.5-.5-.5-.5.2-.5.5.2.5.5.5m-.4 1.2c.2 0 .4-.2.4-.4s-.2-.4-.4-.4-.4.2-.4.4c.1.3.2.4.4.4m-.7 1c.2 0 .4-.2.4-.4s-.2-.4-.4-.4-.4.2-.4.4c0 .3.2.4.4.4M79.9 9.3c.3-.1.7.4.7.6 0 .2 0 .4-.2.5-.1.1-.2.3 0 .4.1.1-.4.6-.6.6-.2 0-.6-1.9.1-2.1m-3.3 1.8s-1.5.1-3.2-.7c-1.4-.7-2.2-1.3-2.3-1.1-.2.2 1.3 1 2 1.4.7.4 2.1.8 3.5.4m.3 2.1c.3-.1.1-.3-.1-.2-.3.1-2.1.7-2.5 1-.1.1 0 .2.1.2.2-.1 2.1-.9 2.5-1m-.1-3.6c-.1 0-.2-.1-.2-.2s.1-.2.2-.2.2.1.2.2c-.1.1-.1.2-.2.2m-.8-.4c-.1 0-.2-.1-.2-.2s.1-.2.2-.2.2.1.2.2-.1.2-.2.2m-.8-.6c-.2 0-.3-.1-.3-.3 0-.2.1-.3.3-.3.2 0 .3.1.3.3.1.1-.1.3-.3.3m-.8-.9c-.2 0-.4-.2-.4-.4s.2-.4.4-.4.4.2.4.4-.2.4-.4.4m-1.1-.9c-.3 0-.5-.2-.5-.5s.2-.5.5-.5.5.2.5.5c-.1.2-.3.5-.5.5m-1.7-.4c-.3 0-.5-.2-.5-.5s.2-.5.5-.5.5.2.5.5-.2.5-.5.5m-1.5.3c-.3 0-.6-.3-.6-.6s.3-.6.6-.6.6.3.6.6c0 .4-.3.6-.6.6m-1.4 1.2c-.3 0-.6-.3-.6-.6s.3-.6.6-.6.6.3.6.6-.2.6-.6.6m-.6 1.7c-.3 0-.6-.3-.6-.6s.3-.6.6-.6.6.3.6.6c.1.3-.2.6-.6.6m.3 1.5c-.3 0-.5-.2-.5-.5s.2-.5.5-.5.5.2.5.5c-.1.3-.3.5-.5.5m.6 1.1c-.2 0-.4-.2-.4-.4s.2-.4.4-.4.4.2.4.4c0 .3-.2.4-.4.4m.8.7c-.1 0-.3-.1-.3-.3 0-.1.1-.3.3-.3.1 0 .3.1.3.3-.1.2-.2.3-.3.3"/><path fill="#8D7646" d="M75.7 10.9c-.1 0-.2-.1-.2-.2s.1-.2.2-.2.2.1.2.2-.1.2-.2.2m-1.2-.3c-.1 0-.2-.1-.2-.2s.1-.2.2-.2.2.1.2.2c.1.1 0 .2-.2.2m-1-.5c-.2 0-.3-.1-.3-.3s.1-.3.3-.3c.2 0 .3.1.3.3s-.1.3-.3.3m-1.1-.8c-.2 0-.4-.1-.4-.3 0-.2.1-.3.3-.3s.3.1.3.3c.1.2-.1.3-.2.3m-1.3-.7c-.2 0-.4-.2-.4-.4s.2-.4.4-.4.4.2.4.4-.2.4-.4.4m-4.2-.5c-.4 0-.7-.3-.7-.7 0-.4.3-.7.7-.7.4 0 .7.3.7.7 0 .4-.3.7-.7.7m-1.6.8c-.4 0-.7-.3-.7-.7 0-.4.3-.7.7-.7.4 0 .7.3.7.7 0 .4-.3.7-.7.7m-1.2 1.5c-.3 0-.6-.3-.6-.6s.3-.6.6-.6.6.3.6.6-.3.6-.6.6m-.2 1.3c-.3 0-.5-.2-.5-.5s.2-.5.5-.5.5.2.5.5-.2.5-.5.5m.4 1.3c-.2 0-.4-.2-.4-.4s.2-.4.4-.4.4.2.4.4c-.1.2-.2.4-.4.4m.7 1c-.2 0-.4-.2-.4-.4s.2-.4.4-.4.4.2.4.4-.2.4-.4.4m13.1-4.7c-.3-.1-.7.4-.7.6 0 .2 0 .4.2.5.1.1.2.3 0 .4-.1.1.4.6.6.6.2 0 .6-1.9-.1-2.1m1-1.5c-.1-.1-.4-.1-.5.2-.1.3-.4.7-.8.7s-.8-.4-.6-.8c.1-.4 1.2-.7 2-.7s1.9.4 2 .7c.2.4-.2.8-.6.8-.4 0-.7-.4-.8-.7-.3-.3-.5-.3-.7-.2zm.6-2.5s1.4.2 1.4 1.2c0 .3-.6.3-1 .2-.4-.1-.8-.4-.4-1.4m-1.2-.1s-1.4.2-1.4 1.2c0 .3.6.3 1 .2.4 0 .8-.3.4-1.4m.6-.6c-.4 0-.2-.8-.3-1-.1-.1-.3-.3-.3-.5s.1-.2.3-.3c.2-.1 0-.5.3-.5s0 .4.3.5c.2.1.3.1.3.3 0 .2-.2.3-.3.5-.1.2.1 1-.3 1m0-3.5c.2 0 .4-.2.4-.4s-.2-.4-.4-.4-.4.2-.4.4.2.4.4.4m.6.8c.1 0 .3-.1.3-.3s-.1-.3-.3-.3c-.1 0-.3.1-.3.3s.2.3.3.3m.9.9c.1 0 .3-.1.3-.3 0-.1-.1-.3-.3-.3-.1 0-.3.1-.3.3 0 .2.1.3.3.3m.9.5c.1 0 .3-.1.3-.3 0-.1-.1-.3-.3-.3-.1 0-.3.1-.3.3 0 .2.2.3.3.3m-.9.6c.1 0 .3-.1.3-.3 0-.1-.1-.3-.3-.3-.1 0-.3.1-.3.3 0 .2.1.3.3.3m-2.1-2c-.1 0-.3-.1-.3-.3s.1-.3.3-.3c.1 0 .3.1.3.3s-.2.3-.3.3m-.9.9c-.1 0-.3-.1-.3-.3 0-.1.1-.3.3-.3.1 0 .3.1.3.3 0 .2-.1.3-.3.3m-.9.5c-.1 0-.3-.1-.3-.3 0-.1.1-.3.3-.3.1 0 .3.1.3.3 0 .2-.1.3-.3.3m.9.6c-.1 0-.3-.1-.3-.3 0-.1.1-.3.3-.3.1 0 .3.1.3.3 0 .2-.1.3-.3.3m1.5 7.2c.1 0 .2-.1.2-.2s-.1-.2-.2-.2-.2.1-.2.2.1.2.2.2m.2-1.7c.2 0 .3-.1.3-.3 0-.2-.1-.3-.3-.3h-.4c-.2 0-.3.1-.3.3 0 .2.1.3.3.3h.4z"/><path fill="#8D7646" d="M79.2 8.5c.1 0 .2-.1.2-.2s-.1-.2-.2-.2H79c-.1 0-.2.1-.2.2s.1.2.2.2h.2zm0 1.7c.1 0 .2-.1.2-.2s-.1-.2-.2-.2H79c-.1 0-.2.1-.2.2s.1.2.2.2h.2zm9.4 13.4c.4 0 .7-.5.7-1.1 0-.6-.3-1.1-.7-1.1-.4 0-.7.5-.7 1.1-.1.6.3 1.1.7 1.1m-3.7-.9.7-1.1-.7-1.2-.8 1.2zM82.3 21c.3 0 .5-.2.5-.5s-.2-.5-.5-.5-.5.2-.5.5.3.5.5.5m.1 1.6c.3 0 .5-.2.5-.5s-.2-.5-.5-.5-.5.2-.5.5.2.5.5.5m4.5-.9c.3 0 .5-.2.5-.5s-.2-.5-.5-.5-.5.2-.5.5c0 .2.2.5.5.5m0 1.5c.3 0 .5-.2.5-.5s-.2-.5-.5-.5-.5.2-.5.5.2.5.5.5m-17.2.3c-.4 0-.7-.5-.7-1.1 0-.6.3-1.1.7-1.1.4 0 .7.5.7 1.1 0 .6-.3 1.1-.7 1.1m3.7-.8-.8-1.1.8-1.2.7 1.2zm2.5-1.7c-.3 0-.5-.2-.5-.5s.2-.5.5-.5.5.2.5.5c0 .2-.2.5-.5.5m-.1 1.6c-.3 0-.5-.2-.5-.5s.2-.5.5-.5.5.2.5.5-.2.5-.5.5m-4.4-1c-.3 0-.5-.2-.5-.5s.2-.5.5-.5.5.2.5.5c-.1.3-.3.5-.5.5m0 1.6c-.3 0-.5-.2-.5-.5s.2-.5.5-.5.5.2.5.5c-.1.2-.3.5-.5.5m7.7-.7c-.7 0-1.5-.2-1.5-1.2 0-1.1.8-1.3 1.5-1.3s1.5.2 1.5 1.3c0 1-.8 1.2-1.5 1.2m0 2.9c2 0 6.5 0 8-.6l-.6-.2c-1.1.1-3.3.3-7.4.3-4.1 0-6.3-.1-7.4-.3l-.6.2c1.5.5 5.9.6 8 .6"/><path fill="#8D7646" d="M79.1 17.2c.5.2.4.8.8 1 .5.2 1.1.4 1.7-.4.5-.6.8 0 1.2.4.4.5 1 .4 1.6 0 .6-.3.6-.3 1 .3.4.7.6.4 1 .3.4 0 .4-.2.5-.1.4.1.2.7 1 .9.9.2 1.1-.8 1.9-1.4.8-.6.7-1.5.9-2 .2-.5 1.3-1 1.9-1.1.6-.1.3-.4.2-.5-.1-.1-.4-.3-.7-.6.3-.6 1.3-1.5.9-3.3-.7-2.5-2.1-2.3-2.2-2.2l.7.7c.1.1-.1.3.1.6.3.3.6.6.7 1.1.1.7-.4.6-.3.8.1.1.2.5.2.7-.1.3-.6.3-.6.8-.1.4.1.3-.2.9-.2.5-.5.4-1 .3-.2.4-.7.9-1.3 1.2-.7.4-.7.7-.9 1.2-.3-.3-.9-.2-.9-.3 0-.1.1-.4.1-.8 0-.3-.1-1.2 0-1.8 0-.4.4-.3.3-.5-.1-.1-.1-.3 0-.6-.1-.3 1-1.7 1.2-2.3.2-.5.5-1.8-.7-3-1.1-1.1-2.5-1-3.4-.3-.7.5-1.9 1.8-3.4 2.7.9.1 2.3-1.2 2.6-1.5.3-.1 1.4-1.6 2.9-1 1.2.4.9 1.4.8 1.4.1.1.5.7.3 1.2s-.7 1.8-1.1 2.5c-1 .1-1.4.9-1.9 1.6-.5.7-1.1.5-1.2.8-.3.9.7 2.3.5 2.6-.2.3-.3.5-1 .4-.7-.1-.7-.7-.3-1.5.4-.8-.2-1-.5-1.1-.3-.1-1-.1-.9.7.1 1.1-.1 1.6-.7 1.6s-1.3-.6-1.1-.7c.3-.1 1.1-1 1.3-1.2.3-.4.5-.8.1-1.5-.4-.6-.8-.7-1.3-.7.3-.8.4-1.2.1-1.5-.3-.3-.5-.1-.7-.3-.1-.3-.4-.4-.4-.4h.1s-.3.1-.4.4c-.2.2-.4 0-.7.3-.3.3-.1.7.1 1.5-.5-.1-.9 0-1.3.7s-.2 1.1.1 1.5c.2.2 1.1 1.1 1.3 1.2.3.1-.4.7-1.1.7-.6 0-.9-.5-.7-1.6.1-.8-.6-.8-.9-.7-.3.1-.8.3-.5 1.1.4.8.4 1.4-.3 1.5-.7.1-.8 0-1-.4-.2-.3.9-1.7.5-2.6-.1-.3-.7-.1-1.2-.8-.5-.7-.9-1.5-1.9-1.6-.5-.7-.9-2-1.1-2.5-.2-.5.1-1.1.3-1.2 0-.1-.4-1 .8-1.4 1.5-.5 2.6.9 2.9 1 .3.3 1.7 1.6 2.6 1.5-1.5-.9-2.7-2.2-3.4-2.7-.9-.6-2.3-.8-3.4.3-1.1 1.2-.9 2.5-.7 3 .3.6 1.4 2.1 1.2 2.3v.6c-.1.2.3.1.3.5v1.8c0 .3.1.7.1.8 0 .1-.6 0-.9.3-.3-.5-.2-.8-.9-1.2-.6-.4-1.1-.8-1.3-1.2-.5.1-.8.1-1-.3-.3-.6-.1-.5-.2-.9-.1-.5-.5-.5-.6-.8 0-.1.1-.5.2-.7.1-.1-.4-.1-.3-.8.1-.5.4-.9.7-1.1.2-.2 0-.4.1-.6.1-.2.3-.4.7-.7-.1-.1-1.5-.3-2.2 2.2-.4 1.8.6 2.7.9 3.3-.3.3-.5.5-.7.6-.1.1-.4.4.2.5.6.1 1.7.7 1.9 1.1.2.5.1 1.4.9 2 .8.6 1 1.6 1.9 1.4.8-.2.5-.7 1-.9.1-.1.1.1.5.1s.6.3 1-.3c.4-.7.4-.7 1-.3.6.3 1.2.5 1.6 0 .4-.5.8-1 1.2-.4.6.8 1.2.6 1.7.4.6-.2.5-.8 1.1-1zm-.6-1.9c0-.3.2-.6.6-.6.3 0 .6.2.6.6 0 .3-.2.6-.6.6-.3 0-.6-.3-.6-.6m7 .6c0-.1.1-.3.3-.3.1 0 .3.1.3.3 0 .1-.1.3-.3.3-.2-.1-.3-.2-.3-.3m1.2 1.5c.1.2.1.3.1.4 0 .3-.3.5-.6.5-.2 0-.3-.2-.4-.4.4-.1.7-.3.9-.5m1.5 1.5c-.7-.5 0-1.1 0-1.1v1.1zm-15.9-2.8c-.1 0-.3-.1-.3-.3 0-.1.1-.3.3-.3.1 0 .3.1.3.3-.1.2-.2.3-.3.3m-.1 1.8c-.1.2-.2.4-.4.4-.3 0-.6-.2-.6-.5 0-.1 0-.2.1-.4.2.1.5.4.9.5m-2.4-.1s.7.5 0 1.1v-1.1zM45.5 82.7c.4.3 1.2.6 2 .6 1.1 0 1.6-.5 1.6-1.2s-.4-1.1-1.5-1.5c-1.5-.5-2.2-1.3-2.2-2.3 0-1.3 1.1-2.4 2.8-2.4.8 0 1.5.2 2 .5l-.4 1.1c-.3-.2-.9-.5-1.7-.5-.9 0-1.4.5-1.4 1.1 0 .7.5 1 1.5 1.4 1.4.5 2.1 1.2 2.1 2.5 0 1.4-1.1 2.4-3 2.4-.9 0-1.7-.2-2.3-.6l.5-1.1zm8.5-8.9c0 .5-.4.9-.9.9s-.9-.4-.9-.9.4-.9.9-.9c.6-.1.9.3.9.9zm-1.6 10.4V76h1.5v8.2h-1.5zm3.9-5.9c0-.8 0-1.5-.1-2.2h1.3l.1 1.3c.4-.8 1.3-1.5 2.7-1.5 1.1 0 2.9.7 2.9 3.5v4.9h-1.5v-4.7c0-1.3-.5-2.4-1.9-2.4-1 0-1.7.7-2 1.5-.1.2-.1.4-.1.7v4.9h-1.5v-6zm14.9 5.6c-.4.2-1.2.5-2.3.5-2.5 0-4.1-1.7-4.1-4.2s1.7-4.3 4.4-4.3c.9 0 1.7.2 2.1.4l-.3 1.1c-.4-.2-.9-.4-1.7-.4-1.9 0-2.9 1.4-2.9 3.1 0 1.9 1.2 3 2.8 3 .8 0 1.4-.2 1.8-.4l.2 1.2zm2.5-3.5c0 2 1.3 2.8 2.8 2.8 1.1 0 1.7-.2 2.3-.4l.3 1.1c-.5.2-1.4.5-2.7.5-2.5 0-4-1.7-4-4.1 0-2.5 1.4-4.4 3.8-4.4 2.7 0 3.4 2.3 3.4 3.8 0 .3 0 .5-.1.7h-5.8zm4.3-1.1c0-.9-.4-2.4-2.1-2.4-1.5 0-2.2 1.4-2.3 2.4H78zm9-4.7-1.9 1-.3-1.1 2.4-1.3h1.3v10.9H87v-9.5zm3.9 6.8c0-1.4.8-2.4 2.2-2.9v-.1c-1.2-.6-1.7-1.5-1.7-2.5 0-1.7 1.5-2.9 3.4-2.9 2.1 0 3.2 1.3 3.2 2.7 0 .9-.5 1.9-1.8 2.6v.1c1.4.5 2.2 1.5 2.2 2.8 0 1.9-1.6 3.2-3.7 3.2-2.4 0-3.8-1.4-3.8-3zm5.9 0c0-1.3-.9-2-2.4-2.4-1.3.4-2 1.2-2 2.3-.1 1.1.8 2.1 2.2 2.1 1.3-.1 2.2-.9 2.2-2zm-4.1-5.5c0 1.1.8 1.7 2.1 2 .9-.3 1.7-1 1.7-2 0-.9-.5-1.8-1.9-1.8-1.2 0-1.9.8-1.9 1.8zm13.5-1.4H102l-.4 2.8c.3 0 .5-.1.9-.1.8 0 1.7.2 2.4.6.9.5 1.6 1.4 1.6 2.8 0 2.1-1.7 3.7-4.1 3.7-1.2 0-2.2-.3-2.7-.7l.4-1.1c.5.3 1.3.6 2.3.6 1.4 0 2.6-.9 2.6-2.4 0-1.4-1-2.4-3.2-2.4-.6 0-1.1.1-1.5.1l.7-5.3h5.2v1.4zm2.1 8c.4.3 1.4.7 2.4.7 1.9 0 2.5-1.2 2.5-2.1 0-1.5-1.4-2.2-2.8-2.2h-.8v-1.1h.8c1.1 0 2.4-.6 2.4-1.9 0-.9-.6-1.7-1.9-1.7-.9 0-1.7.4-2.2.7l-.4-1.1c.6-.4 1.7-.8 2.9-.8 2.2 0 3.1 1.3 3.1 2.6 0 1.1-.7 2.1-2 2.6 1.3.3 2.4 1.3 2.4 2.8 0 1.8-1.4 3.3-4 3.3-1.2 0-2.3-.4-2.8-.7l.4-1.1z"/></svg>