<svg version="1.0" xmlns="http://www.w3.org/2000/svg" viewBox="0 0 300 300" xml:space="preserve"><g fill="#AB8E58"><path d="M159.3 213.1c4.7-11.4 11.9-18.7 23.5-21 7.2-1.4 13.3 0 18.6 5.4 9.8 10 19.8 19.8 29.7 29.8 8.2 8.4 8 17.4.1 26-16.3 18-36.3 22.1-59.2 16.5-28.3-7-52.4-21.7-74-40.7-23.2-20.5-44.5-42.8-59.2-70.5-10.5-19.8-14.6-40.7-8.9-62.8 3-11.9 10.2-21.2 19.6-28.8 6.7-5.4 15.4-5.4 21.6.6 11.4 10.9 22.8 21.8 33.3 33.6 3 3.3 4.3 9.8 3.6 14.4-1.4 9.6-6.9 17.6-15.8 22.1-4.7 2.4-4.8 5-3.4 9.4 8.4 26.7 26.5 44.8 50.7 57.3 6.2 3.2 12.8 5.6 19.8 8.7zM139.8 26.9c71.7 4.2 128.4 61.8 131.6 134.2 0 1.1.1 2.2.1 3.3 0 8.7-4.5 14.1-11.9 14.3-7.5.1-11.8-4.8-12.6-13.7-.7-8.3-1.2-16.6-3-24.7-11.4-50.8-57.6-88.3-109.6-89.5-2.8-.1-5.8-.3-8.3-1.4-5.2-2.2-7.5-6.6-6.9-12.2.7-5.5 3.9-9.4 9.5-10.2 3.5-.5 7.1-.1 11.1-.1z"/><path d="M141.5 74.2c44.8 2 81.8 40 82.4 84.8.1 8.2-4.4 13.7-11.5 14.1-7.2.4-12.9-4.6-12.8-12.7.3-29.7-24.2-61.4-62.7-62.2-7.2-.2-12.2-5.4-12.2-12 0-6.8 5.4-11.8 12.9-12h3.9z"/></g></svg>