<svg version="1.0" xmlns="http://www.w3.org/2000/svg" viewBox="0 0 300 300" xml:space="preserve"><g fill="#AB8E58"><path d="M149.7 28.1h11c9.8-.1 18.5 3.3 27 7.7 9.7 4.9 18.5 11 25.7 19.1 13.8 15.5 21.9 33.4 22.5 54.5.4 12.8-.9 25.4-5.9 37.3-4 9.7-9.4 18.6-16.7 26.3-3 3.2-5.2 2.3-11.7-4-2.6-2.5-3.2-5-.7-8 10-11.7 16.2-25 17.6-40.7 1.2-13-.6-25.6-6.5-36.9-10-19.4-25.5-32.3-47.2-38.2-17.9-4.8-34.7-2.1-50.3 6.1-17.1 8.9-28.8 23-35 41.9-5 15.3-4.1 30 1 44.7 2.6 7.4 6.3 14.3 11.6 20.2 5.5 6.1 3 14.1-5.3 16-1.7.4-4.6-.6-5.8-2-9.3-10.8-16.7-22.6-19-37-1.1-7-2.9-14-2.8-21 .4-32.8 15.1-58 42.8-75.3 14-8.9 29.3-12.4 47.7-10.7z"/><path d="M196 112.1c.4 28-22 47.8-48.8 47.5-26.9-.3-48.1-19.3-48.1-47.2 0-28.1 20.7-47 47.8-47.5 26.4-.6 49.1 18.5 49.1 47.2zm-17.7.1c1.7-17.8-16.2-30.6-30.3-30.7-17.1-.1-31.3 14.4-31.7 29.5-.5 18.2 15.3 31.9 31.4 32 14.3 0 32.3-12.5 30.6-30.8zm16.3 90.4c-.4.9-.6 1.8-1 2.4-4.2 6.5-8.5 13-12.8 19.5-5.5 8.4-10.9 16.8-16.3 25.2-4.5 7-9 14.1-13.5 21.1-2 3.1-4.6 2.7-7.2-1-3.2-4.7-6.4-9.5-9.4-14.3-7-10.9-13.8-21.8-20.8-32.7-3.5-5.5-7.1-11-10.8-16.4-2-2.9-1.6-5.3 1.1-7.2 2.5-1.8 5-3.7 7.8-4.8 1.3-.5 4 .4 4.8 1.5 4.3 6 8.3 12.2 12.3 18.4 5.1 7.8 10 15.8 15.2 23.5 2.7 4 5.1 3.8 7.6-.1 8.6-13.5 17.3-26.9 25.8-40.4 1.7-2.7 3.8-3.8 6.6-2.3 3.1 1.6 6 3.5 8.9 5.4.8.4 1.2 1.4 1.7 2.2z"/></g></svg>