<?xml version="1.0" encoding="utf-8"?>
<!-- Generator: Adobe Illustrator 22.0.0, SVG Export Plug-In . SVG Version: 6.00 Build 0)  -->
<svg version="1.0" id="Слой_1" xmlns="http://www.w3.org/2000/svg" xmlns:xlink="http://www.w3.org/1999/xlink" x="0px" y="0px"
	 viewBox="0 0 300 300" enable-background="new 0 0 300 300" xml:space="preserve">
<g>
	<path fill="#AB8E58" d="M297.4,92c0,55,0,110,0,165c-5.5,14.9-15.1,24.8-31.8,24.9c-77.1,0.2-154.2,0.2-231.3,0
		c-18.3,0-31.5-13.7-31.6-31.9c-0.1-50.8-0.1-101.6,0-152.5c0-13.9,9.1-26.2,22-29.8c4.6-1.3,9.7-1.5,14.6-1.6
		C53,65.9,66.7,66,80.3,66c0.5-2.5,0.9-4.2,1.3-5.9c4.6-23.5,16.4-35.6,39.8-40.4c19.2-4,38.5-3.9,57.8,0.1
		C202,24.6,213.9,37,218.3,60c0.4,1.9,0.8,3.7,1.2,5.2c1.1,0.3,1.5,0.6,2,0.6C233.7,66,246,66,258.3,66
		C281.2,66.1,288.6,70.9,297.4,92z M22.9,133.1c-0.5,0.1-1,0.2-1.5,0.4c-0.1,1.9-0.3,3.9-0.3,5.8c0,35.8,0,71.6,0,107.5
		c0,12.6,4.1,16.5,16.9,16.5c74.6,0,149.2,0,223.8,0c13.1,0,17-4,17-17.2c0-35.6,0-71.2,0-106.7c0-2-0.3-4-0.6-6.5
		c-1.1,0.8-1.5,1-1.7,1.3c-1,1.7-2.1,3.3-3,5c-11.2,21.9-29,32.2-53.7,31.1c-12.4-0.6-24.9-0.1-38.1-0.1c0,3.8,0.1,6.7,0,9.6
		c-0.5,13.7-8.1,21.3-21.7,21.5c-6.9,0.1-13.7,0.1-20.6,0c-12.8-0.3-20.4-7.8-21.1-20.7c-0.2-3.3-0.3-6.6-0.5-10.4
		c-15.2,0-29.7,0.2-44.1,0c-19.2-0.3-33.7-8.9-43.8-25.2C27.4,141.1,25.2,137.1,22.9,133.1z M182.4,151.5c16.7,0,33.1,0.7,49.4-0.3
		c9.9-0.6,17.6-6.9,22.7-15.7c6.9-12.1,13.9-24.2,20.9-36.4c3.8-6.6,1.9-11.7-5.4-13.8c-2.5-0.8-5.3-0.7-8-0.7
		c-74.6,0-149.2,0-223.8,0c-2.4,0-5-0.1-7.3,0.4c-7.6,1.9-9.9,7.4-6,14.1c6.9,12.1,13.9,24.2,20.9,36.4c4.9,8.6,12.4,14.9,22,15.5
		c16.5,1,33.2,0.3,50.1,0.3c0.2-1.5,0.4-3,0.6-4.4c1.6-13.2,8.6-19.8,21.8-20c7.6-0.1,15.2-0.2,22.8,0.1c9.2,0.4,16.4,6.8,18.2,15.5
		C181.7,145.5,181.9,148.4,182.4,151.5z M106.1,65.6c29.7,0,58.8,0,87.8,0c0.1-10-3.2-16.3-12.2-19.2c-21.1-6.9-42.5-6.9-63.5,0
		C109.3,49.3,106,55.6,106.1,65.6z M162.6,182.8c0-12.9,0-25,0-37.1c-8.9,0-17.1,0-25.2,0c0,12.7,0,24.7,0,37.1
		C146.1,182.8,154.1,182.8,162.6,182.8z"/>
</g>
</svg>
