<?xml version="1.0" encoding="utf-8"?>
<!-- Generator: Adobe Illustrator 22.0.0, SVG Export Plug-In . SVG Version: 6.00 Build 0)  -->
<svg version="1.0" id="Слой_1" xmlns="http://www.w3.org/2000/svg" xmlns:xlink="http://www.w3.org/1999/xlink" x="0px" y="0px"
	 viewBox="0 0 300 300" enable-background="new 0 0 300 300" xml:space="preserve">
<g>
	<path fill="#AB8E58" d="M262.7,219c-2,0.1-3.7,0.3-5.3,0.3c-26.2,0-52.5,0-78.7,0c-6.4,0-7.2-0.7-7.3-6.3c-0.2-6.3,1.6-8.4,7.5-8.5
		c21.2,0,42.5,0,63.7,0.1c6.2,0,7.2-0.9,7.2-7.1c0-49,0-97.9,0-146.9c0-7.4-1-8.3-8.3-8.3c-19.5,0-39,0-58.5,0
		c-16.8,0-27.1,10.2-27.1,26.8c0,48.5,0,96.9,0.1,145.4c0,3.9-1.2,5-5,5c-10.7,0-10.7,0.1-10.7-10.6c0-46.9,0-93.8,0-140.7
		c0-15.9-10-25.8-26.2-25.8c-19.5,0-39,0-58.5,0c-7.6,0-9,1.4-9,9c0,48.5,0,96.9,0,145.4c0,6.4,1.3,7.8,7.9,7.8
		c20.9,0,41.8,0,62.7,0c7.4,0,11.4,6.2,7.8,12.7c-0.7,1.3-3.7,2-5.7,2c-18,0.1-35.9,0.1-53.9,0.1c-10.7,0-21.4,0-32.6,0
		c0-63.7,0-127.2,0-191.2c1.9,0,3.8,0,5.7,0c26.2,0,52.5,0.3,78.7-0.2c8.4-0.1,15,2.5,21.3,7.3c3.1,2.4,6.2,6.1,9.6,6.5
		c3,0.3,6.4-3.3,9.5-5.3c9.3-5.6,18.7-9,30.1-8.6c24.8,0.8,49.7,0.3,75,0.3C262.7,91.6,262.7,155,262.7,219z"/>
	<path fill="#AB8E58" d="M32.3,237.9c3.2,0,5.8,0,8.3,0c27.3,0,54.5,0.3,81.8,0c8.4-0.1,15.1,2.9,20.9,8.3c3.4,3.1,6.1,3.7,9.7,0.1
		c4.8-4.8,10.5-8.2,17.8-8.2c30.5,0,61.1,0,92.4,0c0,3.5,0.4,7-0.2,10.4c-0.2,1.2-2.7,2.7-4.3,2.8c-7.8,0.3-15.5,0.1-23.3,0.1
		c-16.9,0-33.8,0-50.7,0c-15.1,0-22.4,4.9-28.3,18.5c-0.5,1.2-2.3,2.3-3.6,2.6c-1.8,0.5-3.8-0.1-5.7,0.2c-5.1,0.6-7.8-1.1-9-6.5
		c-1.8-7.8-8.3-11.4-15.3-13.7c-3.2-1-6.8-1.1-10.2-1.1c-25.2,0-50.4,0-75.6,0.2c-3.3,0-4.8-1-4.6-4.3
		C32.4,244.4,32.3,241.5,32.3,237.9z"/>
</g>
</svg>
