<svg version="1.0" xmlns="http://www.w3.org/2000/svg" xmlns:xlink="http://www.w3.org/1999/xlink" x="0px" y="0px"
	 viewBox="0 0 160.5 84.6" enable-background="new 0 0 160.5 84.6" xml:space="preserve">
<g>
	<g>
		<g class="logo-title">
			<path fill="#FFFFFF" d="M0.3,40.4h10.3v3.1h0.1c2.2-2.7,5.3-3.7,9.2-3.7c3,0,6.3,1.3,7.6,3.6c0.4-0.3,2.6-3.6,9.5-3.6
				c7.2,0,9.6,4.1,9.6,7.9v16H35.9V51.1c0-2.2-0.3-4.2-3.5-4.2c-2.7,0-3.6,1.8-3.6,4.2v12.6H18.1V51.1c0-2.2-0.3-4.2-3.5-4.2
				c-2.7,0-3.6,1.8-3.6,4.2v12.6H0.3V40.4z"/>
			<path fill="#FFFFFF" d="M62.7,64.3c-10.5,0-15.3-5.8-15.3-12.3c0-6.5,4.7-12.2,15.3-12.2C73.2,39.8,78,45.5,78,52
				C78,58.5,73.2,64.3,62.7,64.3 M62.7,46.3c-4,0-4.6,3.3-4.6,5.8c0,2.5,0.5,5.8,4.6,5.8c4,0,4.6-3.3,4.6-5.8
				C67.3,49.5,66.7,46.3,62.7,46.3"/>
			<path fill="#FFFFFF" d="M78.9,40.4h10.3v3.7h0.1c1.7-2.8,4-4.3,7.9-4.3c1.1,0,2.1,0.1,3.1,0.4V48c-1.1-0.3-2-0.6-4.2-0.6
				c-4.2,0-6.5,2.1-6.5,7.1v9.2H78.9V40.4z"/>
			<path fill="#FFFFFF" d="M118.5,47.2c-0.1-0.8-0.5-1.3-1.2-1.8c-0.6-0.4-1.5-0.7-2.4-0.7c-1.5,0-3.2,0.3-3.2,1.8
				c0,0.7,0.6,1,1.2,1.2c1.8,0.6,5.8,0.8,9.4,1.8c3.6,0.9,6.7,2.7,6.7,6.5c0,6.5-7.4,8.2-14.2,8.2c-6.6,0-13.8-2.2-14-8.2h10.2
				c0.1,0.8,0.5,1.5,1.3,2.1c0.5,0.4,1.6,0.7,2.9,0.7c1.4,0,3.6-0.4,3.6-1.8c0-1.3-0.9-1.8-5.9-2.5c-8.1-1.2-11.4-3.3-11.4-7.3
				c0-5.9,7.6-7.4,13.2-7.4c6,0,13.3,1.4,13.6,7.4H118.5z"/>
			<path fill="#FFFFFF" d="M158.4,40.5l-2.6,2.5c2.8,2.3,4.2,5.5,4.2,8.9c0,6.5-4.7,12.3-15.3,12.3c-3.7,0-6.6-0.7-9-1.9l-3,2.9
				l-1.9-1.5l2.9-2.7c-2.9-2.3-4.3-5.6-4.3-9c0-6.5,4.7-12.2,15.3-12.2c3.7,0,6.7,0.7,9.1,2l2.7-2.6L158.4,40.5z M141.6,56.7
				c0.6,0.7,1.6,1.1,3.1,1.1c4,0,4.6-3.3,4.6-5.8c0-0.8-0.1-1.6-0.3-2.4L141.6,56.7z M147.8,47.4c-0.6-0.7-1.7-1.2-3.2-1.2
				c-4,0-4.6,3.3-4.6,5.8c0,0.9,0.1,1.8,0.3,2.6L147.8,47.4z"/>
		</g>
		<g>
			<path fill="#FFFFFF" d="M38,33.8v-3.6h1c0.7,0,0.9,0.4,0.9,0.9c0,0.4-0.1,0.6-0.5,0.8v0c0.5,0.1,0.6,0.4,0.6,0.8
				c0,0.7-0.4,1.1-1.1,1.1H38z M38.4,31.8h0.4c0.5,0,0.8-0.1,0.8-0.6c0-0.4-0.2-0.6-0.8-0.6h-0.4V31.8z M39.1,33.5
				c0.4,0,0.6-0.2,0.6-0.7c0-0.7-0.5-0.7-0.9-0.7h-0.4v1.3H39.1z"/>
			<path fill="#FFFFFF" d="M40.4,31.2h0.4l0.6,2.3h0l0.6-2.3h0.4l-0.8,2.5c0,0.2-0.2,0.5-0.2,0.7c-0.1,0.2-0.3,0.3-0.6,0.3
				c-0.1,0-0.2,0-0.3,0v-0.3c0.1,0,0.2,0.1,0.3,0.1c0.4,0,0.4-0.3,0.5-0.5L40.4,31.2z"/>
			<path fill="#FFFFFF" d="M45.8,33.8C45.8,33.8,45.7,33.8,45.8,33.8c-0.4,0-0.5,0-0.6-0.4h0c-0.1,0.2-0.3,0.4-0.6,0.4
				c-0.5,0-0.7-0.3-0.7-0.8c0-0.1,0-0.5,0.4-0.6c0.2-0.1,0.8-0.3,0.8-0.3c0.1-0.1,0.1-0.2,0.1-0.3c0-0.3-0.1-0.4-0.4-0.4
				c-0.4,0-0.4,0.2-0.4,0.5H44c0-0.6,0.3-0.8,0.8-0.8c0.8,0,0.7,0.7,0.7,0.7v1.5c0,0.1,0,0.2,0.1,0.2c0.1,0,0.1,0,0.2,0V33.8z
				 M45.2,32.4c-0.2,0.1-0.4,0.2-0.6,0.3c-0.2,0.1-0.2,0.3-0.2,0.5c0,0.3,0.1,0.4,0.4,0.4c0.1,0,0.5-0.1,0.5-0.5V32.4z"/>
			<path fill="#FFFFFF" d="M46.7,34.7h-0.4v-3.6h0.4v0.3h0c0.1-0.2,0.3-0.4,0.6-0.4c0.7,0,0.9,0.7,0.9,1.2c0,0.8-0.1,1.6-0.9,1.6
				c-0.3,0-0.4-0.1-0.6-0.3h0V34.7z M47.2,31.4c-0.5,0-0.5,0.7-0.5,1.1c0,0.4,0,1.1,0.5,1.1c0.4,0,0.5-0.4,0.5-1.1
				C47.7,32.1,47.7,31.4,47.2,31.4z"/>
			<path fill="#FFFFFF" d="M49.1,34.7h-0.4v-3.6h0.4v0.3h0c0.1-0.2,0.3-0.4,0.6-0.4c0.7,0,0.9,0.7,0.9,1.2c0,0.8-0.1,1.6-0.9,1.6
				c-0.3,0-0.4-0.1-0.6-0.3h0V34.7z M49.6,31.4c-0.5,0-0.5,0.7-0.5,1.1c0,0.4,0,1.1,0.5,1.1c0.4,0,0.5-0.4,0.5-1.1
				C50.2,32.1,50.1,31.4,49.6,31.4z"/>
			<path fill="#FFFFFF" d="M52.1,33.9c-0.6,0-1-0.3-1-1.5c0-0.8,0.3-1.3,1-1.3c0.7,0,1,0.5,1,1.3C53,33.6,52.7,33.9,52.1,33.9z
				 M52.1,31.4c-0.4,0-0.6,0.3-0.6,1.1c0,0.6,0.1,1.1,0.6,1.1c0.5,0,0.6-0.4,0.6-1.1C52.6,31.7,52.5,31.4,52.1,31.4z"/>
			<path fill="#FFFFFF" d="M53.6,30.7v-0.5H54v0.5H53.6z M53.6,33.8v-2.7H54v2.7H53.6z"/>
			<path fill="#FFFFFF" d="M55.1,31.5L55.1,31.5c0.2-0.2,0.4-0.4,0.7-0.4c0.4,0,0.7,0.2,0.7,0.7v2.1h-0.4v-1.9
				c0-0.3-0.1-0.5-0.4-0.5c-0.1,0-0.3,0.1-0.4,0.1c-0.2,0.1-0.2,0.3-0.2,0.5v1.8h-0.4v-2.7h0.4V31.5z"/>
			<path fill="#FFFFFF" d="M57.6,31.2h0.5v0.3h-0.4v1.8c0,0.1,0,0.2,0.2,0.2h0.3v0.3h-0.4c-0.2,0-0.4,0-0.4-0.4v-1.9h-0.4v-0.3h0.4
				v-0.7h0.4V31.2z"/>
			<path fill="#FFFFFF" d="M58.9,33.8h-0.4v-2.7h0.4v0.3h0c0.1-0.2,0.4-0.4,0.6-0.4c0.3,0,0.5,0.2,0.6,0.4c0.2-0.3,0.4-0.4,0.7-0.4
				c0.2,0,0.4,0.1,0.5,0.2c0.2,0.2,0.2,0.5,0.2,0.6v1.9h-0.4v-1.9c0-0.3-0.1-0.5-0.4-0.5c-0.1,0-0.3,0.1-0.4,0.1
				c-0.2,0.1-0.2,0.3-0.2,0.5v1.8h-0.4v-1.9c0-0.3-0.1-0.5-0.4-0.5c-0.1,0-0.3,0.1-0.4,0.1c-0.2,0.1-0.2,0.3-0.2,0.5V33.8z"/>
			<path fill="#FFFFFF" d="M63.9,32.9c0,0.5-0.2,1-0.8,1c-0.5,0-0.9-0.3-0.9-1.4c0-0.6,0.2-1.4,0.9-1.4c0.9,0,0.8,0.8,0.8,1.4h-1.3
				c0,0.4-0.1,1,0.5,1c0.4,0,0.5-0.3,0.4-0.6H63.9z M63.5,32.2c0-0.3,0-0.8-0.4-0.8c-0.4,0-0.5,0.5-0.5,0.8H63.5z"/>
			<path fill="#FFFFFF" d="M64.9,31.5L64.9,31.5c0.2-0.2,0.4-0.4,0.7-0.4c0.4,0,0.7,0.2,0.7,0.7v2.1h-0.4v-1.9
				c0-0.3-0.1-0.5-0.4-0.5c-0.1,0-0.3,0.1-0.4,0.1c-0.2,0.1-0.2,0.3-0.2,0.5v1.8h-0.4v-2.7h0.4V31.5z"/>
			<path fill="#FFFFFF" d="M67.4,31.2h0.5v0.3h-0.4v1.8c0,0.1,0,0.2,0.2,0.2h0.3v0.3h-0.4c-0.2,0-0.4,0-0.4-0.4v-1.9h-0.4v-0.3H67
				v-0.7h0.4V31.2z"/>
			<path fill="#FFFFFF" d="M70,31.2h0.5v0.3H70v1.8c0,0.1,0,0.2,0.2,0.2h0.3v0.3H70c-0.2,0-0.4,0-0.4-0.4v-1.9h-0.4v-0.3h0.4v-0.7
				H70V31.2z"/>
			<path fill="#FFFFFF" d="M71.8,33.9c-0.6,0-1-0.3-1-1.5c0-0.8,0.3-1.3,1-1.3c0.7,0,1,0.5,1,1.3C72.8,33.6,72.4,33.9,71.8,33.9z
				 M71.8,31.4c-0.4,0-0.6,0.3-0.6,1.1c0,0.6,0.1,1.1,0.6,1.1c0.5,0,0.6-0.4,0.6-1.1C72.4,31.7,72.2,31.4,71.8,31.4z"/>
			<path fill="#FFFFFF" d="M74.3,30.2h2.3v0.4h-0.9v3.2h-0.4v-3.2h-0.9V30.2z"/>
			<path fill="#FFFFFF" d="M77.4,33.8h-0.4v-3.6h0.4v1.2h0c0.2-0.2,0.4-0.4,0.7-0.4c0.4,0,0.7,0.2,0.7,0.7v2.1h-0.4v-1.9
				c0-0.3-0.1-0.5-0.4-0.5c-0.1,0-0.3,0.1-0.4,0.1c-0.2,0.1-0.2,0.3-0.2,0.5V33.8z"/>
			<path fill="#FFFFFF" d="M81.1,32.9c0,0.5-0.2,1-0.8,1c-0.5,0-0.9-0.3-0.9-1.4c0-0.6,0.2-1.4,0.9-1.4c0.9,0,0.8,0.8,0.8,1.4h-1.3
				c0,0.4-0.1,1,0.5,1c0.4,0,0.5-0.3,0.4-0.6H81.1z M80.7,32.2c0-0.3,0-0.8-0.4-0.8c-0.4,0-0.5,0.5-0.5,0.8H80.7z"/>
			<path fill="#FFFFFF" d="M83.4,33.8H83v-3.6h0.9c0.8,0,1.3,0.2,1.2,1c0,0.4-0.3,0.7-0.7,0.8v0c0.5,0,0.6,0.2,0.6,0.7
				c0,0.3,0,0.5,0.1,0.8c0,0.1,0,0.2,0.1,0.2v0.1h-0.5c-0.1-0.2-0.1-0.7-0.1-0.9c0-0.4-0.1-0.7-0.6-0.7h-0.7V33.8z M83.4,31.9H84
				c0.2,0,0.7,0,0.7-0.7c0-0.6-0.5-0.6-0.8-0.6h-0.6V31.9z"/>
			<path fill="#FFFFFF" d="M86.8,33.9c-0.6,0-1-0.3-1-1.5c0-0.8,0.3-1.3,1-1.3c0.7,0,1,0.5,1,1.3C87.7,33.6,87.4,33.9,86.8,33.9z
				 M86.8,31.4c-0.4,0-0.6,0.3-0.6,1.1c0,0.6,0.1,1.1,0.6,1.1c0.5,0,0.6-0.4,0.6-1.1C87.3,31.7,87.2,31.4,86.8,31.4z"/>
			<path fill="#FFFFFF" d="M88,31.2h0.4l0.6,2.3h0l0.6-2.3h0.4l-0.8,2.5c0,0.2-0.2,0.5-0.2,0.7c-0.1,0.2-0.3,0.3-0.6,0.3
				c-0.1,0-0.2,0-0.3,0v-0.3c0.1,0,0.2,0.1,0.3,0.1c0.4,0,0.4-0.3,0.5-0.5L88,31.2z"/>
			<path fill="#FFFFFF" d="M92.2,33.8C92.2,33.8,92.1,33.8,92.2,33.8c-0.4,0-0.5,0-0.6-0.4h0c-0.1,0.2-0.3,0.4-0.6,0.4
				c-0.5,0-0.7-0.3-0.7-0.8c0-0.1,0-0.5,0.4-0.6c0.2-0.1,0.8-0.3,0.8-0.3c0.1-0.1,0.1-0.2,0.1-0.3c0-0.3-0.1-0.4-0.4-0.4
				c-0.3,0-0.4,0.2-0.4,0.5h-0.3c0-0.6,0.3-0.8,0.8-0.8c0.8,0,0.7,0.7,0.7,0.7v1.5c0,0.1,0,0.2,0.1,0.2c0.1,0,0.1,0,0.2,0V33.8z
				 M91.6,32.4c-0.2,0.1-0.4,0.2-0.6,0.3c-0.2,0.1-0.2,0.3-0.2,0.5c0,0.3,0.1,0.4,0.4,0.4c0.1,0,0.5-0.1,0.5-0.5V32.4z"/>
			<path fill="#FFFFFF" d="M92.7,33.8v-3.6h0.4v3.6H92.7z"/>
			<path fill="#FFFFFF" d="M95.1,33.8v-3.6h1c1.1,0,1.3,0.9,1.3,1.8c0,0.9-0.2,1.8-1.2,1.8H95.1z M95.5,33.5h0.7
				c0.6,0,0.8-0.4,0.8-1.5c0-0.8-0.1-1.4-0.8-1.4h-0.7V33.5z"/>
			<path fill="#FFFFFF" d="M99.7,33.8C99.7,33.8,99.6,33.8,99.7,33.8c-0.4,0-0.5,0-0.6-0.4h0c-0.1,0.2-0.3,0.4-0.6,0.4
				c-0.5,0-0.7-0.3-0.7-0.8c0-0.1,0-0.5,0.4-0.6c0.2-0.1,0.8-0.3,0.8-0.3c0.1-0.1,0.1-0.2,0.1-0.3c0-0.3-0.1-0.4-0.4-0.4
				c-0.3,0-0.4,0.2-0.4,0.5h-0.3c0-0.6,0.3-0.8,0.8-0.8c0.8,0,0.7,0.7,0.7,0.7v1.5c0,0.1,0,0.2,0.1,0.2c0.1,0,0.1,0,0.2,0V33.8z
				 M99.1,32.4c-0.2,0.1-0.4,0.2-0.6,0.3c-0.2,0.1-0.2,0.3-0.2,0.5c0,0.3,0.1,0.4,0.4,0.4c0.1,0,0.5-0.1,0.5-0.5V32.4z"/>
			<path fill="#FFFFFF" d="M100.6,31.5L100.6,31.5c0.2-0.2,0.4-0.4,0.7-0.4c0.4,0,0.7,0.2,0.7,0.7v2.1h-0.4v-1.9
				c0-0.3-0.1-0.5-0.4-0.5c-0.1,0-0.3,0.1-0.4,0.1c-0.2,0.1-0.2,0.3-0.2,0.5v1.8h-0.4v-2.7h0.4V31.5z"/>
			<path fill="#FFFFFF" d="M102.6,30.7v-0.5h0.4v0.5H102.6z M102.6,33.8v-2.7h0.4v2.7H102.6z"/>
			<path fill="#FFFFFF" d="M104.9,31.9c0-0.3-0.1-0.5-0.4-0.5c-0.3,0-0.4,0.1-0.4,0.4c0,0.3,0.3,0.4,0.6,0.5
				c0.4,0.2,0.8,0.3,0.8,0.8c0,0.5-0.4,0.8-0.9,0.8c-0.2,0-0.5-0.1-0.7-0.3c-0.2-0.2-0.2-0.4-0.2-0.6h0.4c0,0.3,0.1,0.5,0.5,0.5
				c0.3,0,0.5-0.1,0.5-0.4c0-0.4-0.4-0.4-0.7-0.5c-0.4-0.2-0.7-0.3-0.7-0.8c0-0.5,0.3-0.8,0.8-0.8c0.5,0,0.8,0.2,0.8,0.8H104.9z"/>
			<path fill="#FFFFFF" d="M106.3,33.8h-0.4v-3.6h0.4v1.2h0c0.2-0.2,0.4-0.4,0.7-0.4c0.4,0,0.7,0.2,0.7,0.7v2.1h-0.4v-1.9
				c0-0.3-0.1-0.5-0.4-0.5c-0.1,0-0.3,0.1-0.4,0.1c-0.2,0.1-0.2,0.3-0.2,0.5V33.8z"/>
			<path fill="#FFFFFF" d="M111.3,31.3c0-0.4-0.2-0.8-0.7-0.8c-0.7,0-0.7,1-0.7,1.5c0,0.5,0,1.6,0.7,1.6c0.5,0,0.6-0.4,0.6-0.8
				c0-0.1,0-0.2,0-0.2h0.4c0,0.1,0,0.1,0,0.2c0,0.3,0,0.5-0.2,0.8c-0.2,0.3-0.4,0.4-0.8,0.4c-1.1,0-1.2-1.1-1.2-1.9
				c0-0.8,0.1-1.8,1.2-1.8c0.7,0,1.1,0.5,1,1.1H111.3z"/>
			<path fill="#FFFFFF" d="M113.2,33.9c-0.6,0-1-0.3-1-1.5c0-0.8,0.3-1.3,1-1.3c0.7,0,1,0.5,1,1.3C114.1,33.6,113.8,33.9,113.2,33.9
				z M113.2,31.4c-0.4,0-0.6,0.3-0.6,1.1c0,0.6,0.1,1.1,0.6,1.1c0.5,0,0.6-0.4,0.6-1.1C113.7,31.7,113.6,31.4,113.2,31.4z"/>
			<path fill="#FFFFFF" d="M116.1,33.5L116.1,33.5c-0.1,0.3-0.4,0.4-0.7,0.4c-0.4,0-0.7-0.2-0.7-0.7v-2.1h0.4v2.1
				c0,0.2,0.1,0.3,0.3,0.3c0.2,0,0.4-0.1,0.5-0.2c0.1-0.1,0.1-0.3,0.1-0.5v-1.7h0.4v2.7h-0.4V33.5z"/>
			<path fill="#FFFFFF" d="M117.6,31.6L117.6,31.6c0.2-0.3,0.4-0.5,0.8-0.5v0.4c-0.5-0.1-0.8,0.2-0.8,0.7v1.6h-0.4v-2.7h0.4V31.6z"
				/>
			<path fill="#FFFFFF" d="M119.3,31.2h0.5v0.3h-0.5v1.8c0,0.1,0,0.2,0.2,0.2h0.3v0.3h-0.4c-0.2,0-0.4,0-0.4-0.4v-1.9h-0.4v-0.3h0.4
				v-0.7h0.4V31.2z"/>
		</g>
		<path fill="#8D7646" d="M79.1,19.4c-4,0-7.6,0.8-9,1.4c-0.3,0.1-0.5,0.1-0.6,0c-0.1-0.1-0.2-0.4,0.2-0.5c2.5-1.2,7.5-1.6,9.4-1.6
			h0.1c1.9,0,7,0.4,9.4,1.6c0.4,0.2,0.3,0.4,0.2,0.5c-0.1,0.1-0.3,0.1-0.6,0C86.7,20.2,83.1,19.4,79.1,19.4L79.1,19.4z"/>
		<path fill="#8D7646" d="M79.2,23.7c-4,0-7.5,0.5-9,0.9c-0.4,0.1-0.5,0.1-0.6,0c-0.1-0.1-0.2-0.4,0.2-0.5c2.6-0.9,7.5-1.1,9.4-1.1
			h0.1c1.9,0,7.2,0.4,9.4,1.1c0.4,0.1,0.3,0.4,0.2,0.5c-0.1,0.1-0.3,0.1-0.6,0C86.8,24.3,83.2,23.7,79.2,23.7L79.2,23.7z"/>
		<path fill="#8D7646" d="M81.4,11.2c0,0,1.5,0.2,3.2-0.7c1.4-0.7,2.2-1.3,2.3-1.1c0.2,0.2-1.3,1-2,1.4
			C84.2,11.1,82.8,11.6,81.4,11.2"/>
		<path fill="#8D7646" d="M81.1,13.2C80.8,13.2,81,13,81.2,13c0.3,0.1,2.1,0.7,2.5,1c0.1,0.1,0,0.2-0.1,0.2
			C83.4,14.1,81.5,13.3,81.1,13.2"/>
		<path fill="#8D7646" d="M81.2,9.6c0.1,0,0.2-0.1,0.2-0.2c0-0.1-0.1-0.2-0.2-0.2c-0.1,0-0.2,0.1-0.2,0.2
			C81.1,9.6,81.1,9.6,81.2,9.6"/>
		<path fill="#8D7646" d="M82,9.2c0.1,0,0.2-0.1,0.2-0.2c0-0.1-0.1-0.2-0.2-0.2c-0.1,0-0.2,0.1-0.2,0.2C81.8,9.1,81.9,9.2,82,9.2"/>
		<path fill="#8D7646" d="M82.8,8.6c0.2,0,0.3-0.1,0.3-0.3c0-0.2-0.1-0.3-0.3-0.3c-0.2,0-0.3,0.1-0.3,0.3
			C82.4,8.5,82.6,8.6,82.8,8.6"/>
		<path fill="#8D7646" d="M83.6,7.7c0.2,0,0.4-0.2,0.4-0.4c0-0.2-0.2-0.4-0.4-0.4c-0.2,0-0.4,0.2-0.4,0.4
			C83.2,7.5,83.4,7.7,83.6,7.7"/>
		<path fill="#8D7646" d="M84.7,6.8c0.3,0,0.5-0.2,0.5-0.5c0-0.3-0.2-0.5-0.5-0.5c-0.3,0-0.5,0.2-0.5,0.5
			C84.3,6.6,84.5,6.8,84.7,6.8"/>
		<path fill="#8D7646" d="M86.4,6.4c0.3,0,0.5-0.2,0.5-0.5c0-0.3-0.2-0.5-0.5-0.5c-0.3,0-0.5,0.2-0.5,0.5
			C85.9,6.2,86.1,6.4,86.4,6.4"/>
		<path fill="#8D7646" d="M87.9,6.8c0.3,0,0.6-0.3,0.6-0.6c0-0.3-0.3-0.6-0.6-0.6c-0.3,0-0.6,0.3-0.6,0.6
			C87.3,6.5,87.6,6.8,87.9,6.8"/>
		<path fill="#8D7646" d="M89.3,7.9c0.3,0,0.6-0.3,0.6-0.6c0-0.3-0.3-0.6-0.6-0.6c-0.3,0-0.6,0.3-0.6,0.6
			C88.6,7.7,88.9,7.9,89.3,7.9"/>
		<path fill="#8D7646" d="M89.9,9.7c0.3,0,0.6-0.3,0.6-0.6c0-0.3-0.3-0.6-0.6-0.6c-0.3,0-0.6,0.3-0.6,0.6
			C89.2,9.4,89.5,9.7,89.9,9.7"/>
		<path fill="#8D7646" d="M89.6,11.2c0.3,0,0.5-0.2,0.5-0.5c0-0.3-0.2-0.5-0.5-0.5c-0.3,0-0.5,0.2-0.5,0.5
			C89.2,11,89.4,11.2,89.6,11.2"/>
		<path fill="#8D7646" d="M89,12.2c0.2,0,0.4-0.2,0.4-0.4c0-0.2-0.2-0.4-0.4-0.4c-0.2,0-0.4,0.2-0.4,0.4
			C88.6,12.1,88.8,12.2,89,12.2"/>
		<path fill="#8D7646" d="M88.2,13c0.1,0,0.3-0.1,0.3-0.3c0-0.1-0.1-0.3-0.3-0.3c-0.1,0-0.3,0.1-0.3,0.3C87.9,12.8,88.1,13,88.2,13"
			/>
		<path fill="#8D7646" d="M82.3,11c0.1,0,0.2-0.1,0.2-0.2c0-0.1-0.1-0.2-0.2-0.2c-0.1,0-0.2,0.1-0.2,0.2C82.1,10.9,82.2,11,82.3,11"
			/>
		<path fill="#8D7646" d="M83.4,10.6c0.1,0,0.2-0.1,0.2-0.2c0-0.1-0.1-0.2-0.2-0.2c-0.1,0-0.2,0.1-0.2,0.2
			C83.2,10.5,83.3,10.6,83.4,10.6"/>
		<path fill="#8D7646" d="M84.5,10.1c0.2,0,0.3-0.1,0.3-0.3s-0.1-0.3-0.3-0.3c-0.2,0-0.3,0.1-0.3,0.3S84.3,10.1,84.5,10.1"/>
		<path fill="#8D7646" d="M85.6,9.4c0.2,0,0.3-0.1,0.3-0.3s-0.1-0.3-0.3-0.3c-0.2,0-0.3,0.1-0.3,0.3S85.5,9.4,85.6,9.4"/>
		<path fill="#8D7646" d="M86.9,8.7c0.2,0,0.4-0.2,0.4-0.4c0-0.2-0.2-0.4-0.4-0.4c-0.2,0-0.4,0.2-0.4,0.4
			C86.5,8.5,86.7,8.7,86.9,8.7"/>
		<path fill="#8D7646" d="M91.1,8.1c0.4,0,0.7-0.3,0.7-0.7s-0.3-0.7-0.7-0.7c-0.4,0-0.7,0.3-0.7,0.7S90.7,8.1,91.1,8.1"/>
		<path fill="#8D7646" d="M92.7,8.9c0.4,0,0.7-0.3,0.7-0.7c0-0.4-0.3-0.7-0.7-0.7c-0.4,0-0.7,0.3-0.7,0.7C92,8.6,92.3,8.9,92.7,8.9"
			/>
		<path fill="#8D7646" d="M93.9,10.4c0.3,0,0.6-0.3,0.6-0.6c0-0.3-0.3-0.6-0.6-0.6c-0.3,0-0.6,0.3-0.6,0.6
			C93.3,10.1,93.6,10.4,93.9,10.4"/>
		<path fill="#8D7646" d="M94.1,11.8c0.3,0,0.5-0.2,0.5-0.5c0-0.3-0.2-0.5-0.5-0.5c-0.3,0-0.5,0.2-0.5,0.5
			C93.6,11.6,93.8,11.8,94.1,11.8"/>
		<path fill="#8D7646" d="M93.7,13c0.2,0,0.4-0.2,0.4-0.4c0-0.2-0.2-0.4-0.4-0.4c-0.2,0-0.4,0.2-0.4,0.4C93.4,12.9,93.5,13,93.7,13"
			/>
		<path fill="#8D7646" d="M93,14c0.2,0,0.4-0.2,0.4-0.4c0-0.2-0.2-0.4-0.4-0.4c-0.2,0-0.4,0.2-0.4,0.4C92.6,13.9,92.8,14,93,14"/>
		<path fill="#8D7646" d="M79.9,9.3c0.3-0.1,0.7,0.4,0.7,0.6c0,0.2,0,0.4-0.2,0.5c-0.1,0.1-0.2,0.3,0,0.4c0.1,0.1-0.4,0.6-0.6,0.6
			C79.6,11.4,79.2,9.5,79.9,9.3"/>
		<path fill="#8D7646" d="M76.6,11.1c0,0-1.5,0.1-3.2-0.7c-1.4-0.7-2.2-1.3-2.3-1.1c-0.2,0.2,1.3,1,2,1.4
			C73.8,11.1,75.2,11.5,76.6,11.1"/>
		<path fill="#8D7646" d="M76.9,13.2c0.3-0.1,0.1-0.3-0.1-0.2c-0.3,0.1-2.1,0.7-2.5,1c-0.1,0.1,0,0.2,0.1,0.2
			C74.6,14.1,76.5,13.3,76.9,13.2"/>
		<path fill="#8D7646" d="M76.8,9.6c-0.1,0-0.2-0.1-0.2-0.2c0-0.1,0.1-0.2,0.2-0.2c0.1,0,0.2,0.1,0.2,0.2
			C76.9,9.5,76.9,9.6,76.8,9.6"/>
		<path fill="#8D7646" d="M76,9.2c-0.1,0-0.2-0.1-0.2-0.2c0-0.1,0.1-0.2,0.2-0.2c0.1,0,0.2,0.1,0.2,0.2C76.2,9.1,76.1,9.2,76,9.2"/>
		<path fill="#8D7646" d="M75.2,8.6c-0.2,0-0.3-0.1-0.3-0.3c0-0.2,0.1-0.3,0.3-0.3c0.2,0,0.3,0.1,0.3,0.3
			C75.6,8.4,75.4,8.6,75.2,8.6"/>
		<path fill="#8D7646" d="M74.4,7.7c-0.2,0-0.4-0.2-0.4-0.4c0-0.2,0.2-0.4,0.4-0.4c0.2,0,0.4,0.2,0.4,0.4
			C74.8,7.5,74.6,7.7,74.4,7.7"/>
		<path fill="#8D7646" d="M73.3,6.8c-0.3,0-0.5-0.2-0.5-0.5c0-0.3,0.2-0.5,0.5-0.5c0.3,0,0.5,0.2,0.5,0.5
			C73.7,6.5,73.5,6.8,73.3,6.8"/>
		<path fill="#8D7646" d="M71.6,6.4c-0.3,0-0.5-0.2-0.5-0.5c0-0.3,0.2-0.5,0.5-0.5c0.3,0,0.5,0.2,0.5,0.5
			C72.1,6.2,71.9,6.4,71.6,6.4"/>
		<path fill="#8D7646" d="M70.1,6.7c-0.3,0-0.6-0.3-0.6-0.6c0-0.3,0.3-0.6,0.6-0.6c0.3,0,0.6,0.3,0.6,0.6
			C70.7,6.5,70.4,6.7,70.1,6.7"/>
		<path fill="#8D7646" d="M68.7,7.9c-0.3,0-0.6-0.3-0.6-0.6c0-0.3,0.3-0.6,0.6-0.6c0.3,0,0.6,0.3,0.6,0.6
			C69.3,7.6,69.1,7.9,68.7,7.9"/>
		<path fill="#8D7646" d="M68.1,9.6c-0.3,0-0.6-0.3-0.6-0.6c0-0.3,0.3-0.6,0.6-0.6c0.3,0,0.6,0.3,0.6,0.6
			C68.8,9.3,68.5,9.6,68.1,9.6"/>
		<path fill="#8D7646" d="M68.4,11.1c-0.3,0-0.5-0.2-0.5-0.5c0-0.3,0.2-0.5,0.5-0.5c0.3,0,0.5,0.2,0.5,0.5
			C68.8,10.9,68.6,11.1,68.4,11.1"/>
		<path fill="#8D7646" d="M69,12.2c-0.2,0-0.4-0.2-0.4-0.4c0-0.2,0.2-0.4,0.4-0.4c0.2,0,0.4,0.2,0.4,0.4
			C69.4,12.1,69.2,12.2,69,12.2"/>
		<path fill="#8D7646" d="M69.8,12.9c-0.1,0-0.3-0.1-0.3-0.3c0-0.1,0.1-0.3,0.3-0.3c0.1,0,0.3,0.1,0.3,0.3
			C70,12.8,69.9,12.9,69.8,12.9"/>
		<path fill="#8D7646" d="M75.7,10.9c-0.1,0-0.2-0.1-0.2-0.2c0-0.1,0.1-0.2,0.2-0.2c0.1,0,0.2,0.1,0.2,0.2
			C75.9,10.8,75.8,10.9,75.7,10.9"/>
		<path fill="#8D7646" d="M74.5,10.6c-0.1,0-0.2-0.1-0.2-0.2c0-0.1,0.1-0.2,0.2-0.2c0.1,0,0.2,0.1,0.2,0.2
			C74.8,10.5,74.7,10.6,74.5,10.6"/>
		<path fill="#8D7646" d="M73.5,10.1c-0.2,0-0.3-0.1-0.3-0.3s0.1-0.3,0.3-0.3c0.2,0,0.3,0.1,0.3,0.3S73.7,10.1,73.5,10.1"/>
		<path fill="#8D7646" d="M72.4,9.3C72.2,9.3,72,9.2,72,9c0-0.2,0.1-0.3,0.3-0.3s0.3,0.1,0.3,0.3C72.7,9.2,72.5,9.3,72.4,9.3"/>
		<path fill="#8D7646" d="M71.1,8.6c-0.2,0-0.4-0.2-0.4-0.4s0.2-0.4,0.4-0.4c0.2,0,0.4,0.2,0.4,0.4S71.3,8.6,71.1,8.6"/>
		<path fill="#8D7646" d="M66.9,8.1c-0.4,0-0.7-0.3-0.7-0.7c0-0.4,0.3-0.7,0.7-0.7c0.4,0,0.7,0.3,0.7,0.7
			C67.6,7.8,67.3,8.1,66.9,8.1"/>
		<path fill="#8D7646" d="M65.3,8.9c-0.4,0-0.7-0.3-0.7-0.7c0-0.4,0.3-0.7,0.7-0.7c0.4,0,0.7,0.3,0.7,0.7C66,8.6,65.7,8.9,65.3,8.9"
			/>
		<path fill="#8D7646" d="M64.1,10.4c-0.3,0-0.6-0.3-0.6-0.6c0-0.3,0.3-0.6,0.6-0.6c0.3,0,0.6,0.3,0.6,0.6
			C64.7,10.1,64.4,10.4,64.1,10.4"/>
		<path fill="#8D7646" d="M63.9,11.7c-0.3,0-0.5-0.2-0.5-0.5c0-0.3,0.2-0.5,0.5-0.5c0.3,0,0.5,0.2,0.5,0.5
			C64.4,11.5,64.2,11.7,63.9,11.7"/>
		<path fill="#8D7646" d="M64.3,13c-0.2,0-0.4-0.2-0.4-0.4c0-0.2,0.2-0.4,0.4-0.4s0.4,0.2,0.4,0.4C64.6,12.8,64.5,13,64.3,13"/>
		<path fill="#8D7646" d="M65,14c-0.2,0-0.4-0.2-0.4-0.4c0-0.2,0.2-0.4,0.4-0.4c0.2,0,0.4,0.2,0.4,0.4C65.4,13.8,65.2,14,65,14"/>
		<path fill="#8D7646" d="M78.1,9.3c-0.3-0.1-0.7,0.4-0.7,0.6c0,0.2,0,0.4,0.2,0.5c0.1,0.1,0.2,0.3,0,0.4c-0.1,0.1,0.4,0.6,0.6,0.6
			C78.4,11.4,78.8,9.5,78.1,9.3"/>
		<path fill="#8D7646" d="M79.1,7.8c-0.1-0.1-0.4-0.1-0.5,0.2c-0.1,0.3-0.4,0.7-0.8,0.7c-0.4,0-0.8-0.4-0.6-0.8
			c0.1-0.4,1.2-0.7,2-0.7c0.8,0,1.9,0.4,2,0.7c0.2,0.4-0.2,0.8-0.6,0.8c-0.4,0-0.7-0.4-0.8-0.7C79.5,7.7,79.3,7.7,79.1,7.8L79.1,7.8
			z"/>
		<path fill="#8D7646" d="M79.7,5.3c0,0,1.4,0.2,1.4,1.2c0,0.3-0.6,0.3-1,0.2C79.7,6.6,79.3,6.3,79.7,5.3"/>
		<path fill="#8D7646" d="M78.5,5.2c0,0-1.4,0.2-1.4,1.2c0,0.3,0.6,0.3,1,0.2C78.5,6.6,78.9,6.3,78.5,5.2"/>
		<path fill="#8D7646" d="M79.1,4.6c-0.4,0-0.2-0.8-0.3-1c-0.1-0.1-0.3-0.3-0.3-0.5c0-0.2,0.1-0.2,0.3-0.3c0.2-0.1,0-0.5,0.3-0.5
			c0.3,0,0,0.4,0.3,0.5c0.2,0.1,0.3,0.1,0.3,0.3c0,0.2-0.2,0.3-0.3,0.5C79.3,3.8,79.5,4.6,79.1,4.6"/>
		<path fill="#8D7646" d="M79.1,1.1c0.2,0,0.4-0.2,0.4-0.4c0-0.2-0.2-0.4-0.4-0.4c-0.2,0-0.4,0.2-0.4,0.4
			C78.7,0.9,78.9,1.1,79.1,1.1"/>
		<path fill="#8D7646" d="M79.7,1.9c0.1,0,0.3-0.1,0.3-0.3s-0.1-0.3-0.3-0.3c-0.1,0-0.3,0.1-0.3,0.3S79.6,1.9,79.7,1.9"/>
		<path fill="#8D7646" d="M80.6,2.8c0.1,0,0.3-0.1,0.3-0.3c0-0.1-0.1-0.3-0.3-0.3c-0.1,0-0.3,0.1-0.3,0.3
			C80.3,2.7,80.4,2.8,80.6,2.8"/>
		<path fill="#8D7646" d="M81.5,3.3c0.1,0,0.3-0.1,0.3-0.3c0-0.1-0.1-0.3-0.3-0.3c-0.1,0-0.3,0.1-0.3,0.3
			C81.2,3.2,81.4,3.3,81.5,3.3"/>
		<path fill="#8D7646" d="M80.6,3.9c0.1,0,0.3-0.1,0.3-0.3c0-0.1-0.1-0.3-0.3-0.3c-0.1,0-0.3,0.1-0.3,0.3
			C80.3,3.8,80.4,3.9,80.6,3.9"/>
		<path fill="#8D7646" d="M78.5,1.9c-0.1,0-0.3-0.1-0.3-0.3s0.1-0.3,0.3-0.3c0.1,0,0.3,0.1,0.3,0.3S78.6,1.9,78.5,1.9"/>
		<path fill="#8D7646" d="M77.6,2.8c-0.1,0-0.3-0.1-0.3-0.3c0-0.1,0.1-0.3,0.3-0.3c0.1,0,0.3,0.1,0.3,0.3
			C77.9,2.7,77.8,2.8,77.6,2.8"/>
		<path fill="#8D7646" d="M76.7,3.3c-0.1,0-0.3-0.1-0.3-0.3c0-0.1,0.1-0.3,0.3-0.3c0.1,0,0.3,0.1,0.3,0.3C77,3.2,76.9,3.3,76.7,3.3"
			/>
		<path fill="#8D7646" d="M77.6,3.9c-0.1,0-0.3-0.1-0.3-0.3c0-0.1,0.1-0.3,0.3-0.3c0.1,0,0.3,0.1,0.3,0.3
			C77.9,3.8,77.8,3.9,77.6,3.9"/>
		<path fill="#8D7646" d="M79.1,11.1c0.1,0,0.2-0.1,0.2-0.2c0-0.1-0.1-0.2-0.2-0.2c-0.1,0-0.2,0.1-0.2,0.2
			C78.9,11,79,11.1,79.1,11.1"/>
		<path fill="#8D7646" d="M79.3,9.4c0.2,0,0.3-0.1,0.3-0.3c0-0.2-0.1-0.3-0.3-0.3h-0.4c-0.2,0-0.3,0.1-0.3,0.3
			c0,0.2,0.1,0.3,0.3,0.3H79.3z"/>
		<path fill="#8D7646" d="M79.2,8.5c0.1,0,0.2-0.1,0.2-0.2c0-0.1-0.1-0.2-0.2-0.2H79c-0.1,0-0.2,0.1-0.2,0.2c0,0.1,0.1,0.2,0.2,0.2
			H79.2z"/>
		<path fill="#8D7646" d="M79.2,10.2c0.1,0,0.2-0.1,0.2-0.2c0-0.1-0.1-0.2-0.2-0.2H79c-0.1,0-0.2,0.1-0.2,0.2c0,0.1,0.1,0.2,0.2,0.2
			H79.2z"/>
		<path fill="#8D7646" d="M88.6,23.6c0.4,0,0.7-0.5,0.7-1.1c0-0.6-0.3-1.1-0.7-1.1c-0.4,0-0.7,0.5-0.7,1.1
			C87.8,23.1,88.2,23.6,88.6,23.6"/>
		<polygon fill="#8D7646" points="84.9,22.7 85.6,21.6 84.9,20.4 84.1,21.6 		"/>
		<path fill="#8D7646" d="M82.3,21c0.3,0,0.5-0.2,0.5-0.5c0-0.3-0.2-0.5-0.5-0.5c-0.3,0-0.5,0.2-0.5,0.5C81.8,20.8,82.1,21,82.3,21"
			/>
		<path fill="#8D7646" d="M82.4,22.6c0.3,0,0.5-0.2,0.5-0.5c0-0.3-0.2-0.5-0.5-0.5c-0.3,0-0.5,0.2-0.5,0.5
			C81.9,22.4,82.1,22.6,82.4,22.6"/>
		<path fill="#8D7646" d="M86.9,21.7c0.3,0,0.5-0.2,0.5-0.5c0-0.3-0.2-0.5-0.5-0.5c-0.3,0-0.5,0.2-0.5,0.5
			C86.4,21.4,86.6,21.7,86.9,21.7"/>
		<path fill="#8D7646" d="M86.9,23.2c0.3,0,0.5-0.2,0.5-0.5c0-0.3-0.2-0.5-0.5-0.5c-0.3,0-0.5,0.2-0.5,0.5
			C86.4,23,86.6,23.2,86.9,23.2"/>
		<path fill="#8D7646" d="M69.7,23.5c-0.4,0-0.7-0.5-0.7-1.1c0-0.6,0.3-1.1,0.7-1.1c0.4,0,0.7,0.5,0.7,1.1
			C70.4,23,70.1,23.5,69.7,23.5"/>
		<polygon fill="#8D7646" points="73.4,22.7 72.6,21.6 73.4,20.4 74.1,21.6 		"/>
		<path fill="#8D7646" d="M75.9,21c-0.3,0-0.5-0.2-0.5-0.5c0-0.3,0.2-0.5,0.5-0.5c0.3,0,0.5,0.2,0.5,0.5C76.4,20.7,76.2,21,75.9,21"
			/>
		<path fill="#8D7646" d="M75.8,22.6c-0.3,0-0.5-0.2-0.5-0.5c0-0.3,0.2-0.5,0.5-0.5c0.3,0,0.5,0.2,0.5,0.5
			C76.3,22.4,76.1,22.6,75.8,22.6"/>
		<path fill="#8D7646" d="M71.4,21.6c-0.3,0-0.5-0.2-0.5-0.5c0-0.3,0.2-0.5,0.5-0.5c0.3,0,0.5,0.2,0.5,0.5
			C71.8,21.4,71.6,21.6,71.4,21.6"/>
		<path fill="#8D7646" d="M71.4,23.2c-0.3,0-0.5-0.2-0.5-0.5c0-0.3,0.2-0.5,0.5-0.5c0.3,0,0.5,0.2,0.5,0.5
			C71.8,22.9,71.6,23.2,71.4,23.2"/>
		<path fill="#8D7646" d="M79.1,22.5c-0.7,0-1.5-0.2-1.5-1.2c0-1.1,0.8-1.3,1.5-1.3c0.7,0,1.5,0.2,1.5,1.3
			C80.6,22.3,79.8,22.5,79.1,22.5"/>
		<path fill="#8D7646" d="M79.1,25.4c2,0,6.5,0,8-0.6c0,0-0.3-0.1-0.6-0.2c-1.1,0.1-3.3,0.3-7.4,0.3c-4.1,0-6.3-0.1-7.4-0.3
			c-0.3,0.1-0.6,0.2-0.6,0.2C72.6,25.3,77,25.4,79.1,25.4"/>
		<path fill="#8D7646" d="M79.1,17.2c0.5,0.2,0.4,0.8,0.8,1c0.5,0.2,1.1,0.4,1.7-0.4c0.5-0.6,0.8,0,1.2,0.4c0.4,0.5,1,0.4,1.6,0
			c0.6-0.3,0.6-0.3,1,0.3c0.4,0.7,0.6,0.4,1,0.3c0.4,0,0.4-0.2,0.5-0.1c0.4,0.1,0.2,0.7,1,0.9c0.9,0.2,1.1-0.8,1.9-1.4
			c0.8-0.6,0.7-1.5,0.9-2c0.2-0.5,1.3-1,1.9-1.1c0.6-0.1,0.3-0.4,0.2-0.5c-0.1-0.1-0.4-0.3-0.7-0.6c0.3-0.6,1.3-1.5,0.9-3.3
			c-0.7-2.5-2.1-2.3-2.2-2.2c0.3,0.3,0.5,0.5,0.7,0.7c0.1,0.1-0.1,0.3,0.1,0.6c0.3,0.3,0.6,0.6,0.7,1.1c0.1,0.7-0.4,0.6-0.3,0.8
			c0.1,0.1,0.2,0.5,0.2,0.7c-0.1,0.3-0.6,0.3-0.6,0.8c-0.1,0.4,0.1,0.3-0.2,0.9c-0.2,0.5-0.5,0.4-1,0.3c-0.2,0.4-0.7,0.9-1.3,1.2
			c-0.7,0.4-0.7,0.7-0.9,1.2c-0.3-0.3-0.9-0.2-0.9-0.3c0-0.1,0.1-0.4,0.1-0.8c0-0.3-0.1-1.2,0-1.8c0-0.4,0.4-0.3,0.3-0.5
			c-0.1-0.1-0.1-0.3,0-0.6c-0.1-0.3,1-1.7,1.2-2.3c0.2-0.5,0.5-1.8-0.7-3c-1.1-1.1-2.5-1-3.4-0.3c-0.7,0.5-1.9,1.8-3.4,2.7
			c0.9,0.1,2.3-1.2,2.6-1.5c0.3-0.1,1.4-1.6,2.9-1c1.2,0.4,0.9,1.4,0.8,1.4c0.1,0.1,0.5,0.7,0.3,1.2c-0.2,0.5-0.7,1.8-1.1,2.5
			c-1,0.1-1.4,0.9-1.9,1.6c-0.5,0.7-1.1,0.5-1.2,0.8c-0.3,0.9,0.7,2.3,0.5,2.6c-0.2,0.3-0.3,0.5-1,0.4c-0.7-0.1-0.7-0.7-0.3-1.5
			c0.4-0.8-0.2-1-0.5-1.1c-0.3-0.1-1-0.1-0.9,0.7c0.1,1.1-0.1,1.6-0.7,1.6c-0.6,0-1.3-0.6-1.1-0.7c0.3-0.1,1.1-1,1.3-1.2
			c0.3-0.4,0.5-0.8,0.1-1.5c-0.4-0.6-0.8-0.7-1.3-0.7c0.3-0.8,0.4-1.2,0.1-1.5c-0.3-0.3-0.5-0.1-0.7-0.3c-0.1-0.3-0.4-0.4-0.4-0.4
			H79c0,0-0.3,0.1-0.4,0.4c-0.2,0.2-0.4,0-0.7,0.3c-0.3,0.3-0.1,0.7,0.1,1.5c-0.5-0.1-0.9,0-1.3,0.7c-0.4,0.7-0.2,1.1,0.1,1.5
			c0.2,0.2,1.1,1.1,1.3,1.2c0.3,0.1-0.4,0.7-1.1,0.7c-0.6,0-0.9-0.5-0.7-1.6c0.1-0.8-0.6-0.8-0.9-0.7c-0.3,0.1-0.8,0.3-0.5,1.1
			c0.4,0.8,0.4,1.4-0.3,1.5c-0.7,0.1-0.8,0-1-0.4c-0.2-0.3,0.9-1.7,0.5-2.6c-0.1-0.3-0.7-0.1-1.2-0.8c-0.5-0.7-0.9-1.5-1.9-1.6
			c-0.5-0.7-0.9-2-1.1-2.5c-0.2-0.5,0.1-1.1,0.3-1.2c0-0.1-0.4-1,0.8-1.4c1.5-0.5,2.6,0.9,2.9,1c0.3,0.3,1.7,1.6,2.6,1.5
			c-1.5-0.9-2.7-2.2-3.4-2.7c-0.9-0.6-2.3-0.8-3.4,0.3c-1.1,1.2-0.9,2.5-0.7,3c0.3,0.6,1.4,2.1,1.2,2.3c0,0.3,0,0.4,0,0.6
			c-0.1,0.2,0.3,0.1,0.3,0.5c0,0.5,0,1.4,0,1.8c0,0.3,0.1,0.7,0.1,0.8c0,0.1-0.6,0-0.9,0.3c-0.3-0.5-0.2-0.8-0.9-1.2
			c-0.6-0.4-1.1-0.8-1.3-1.2c-0.5,0.1-0.8,0.1-1-0.3c-0.3-0.6-0.1-0.5-0.2-0.9c-0.1-0.5-0.5-0.5-0.6-0.8c0-0.1,0.1-0.5,0.2-0.7
			c0.1-0.1-0.4-0.1-0.3-0.8c0.1-0.5,0.4-0.9,0.7-1.1c0.2-0.2,0-0.4,0.1-0.6c0.1-0.2,0.3-0.4,0.7-0.7c-0.1-0.1-1.5-0.3-2.2,2.2
			c-0.4,1.8,0.6,2.7,0.9,3.3c-0.3,0.3-0.5,0.5-0.7,0.6c-0.1,0.1-0.4,0.4,0.2,0.5c0.6,0.1,1.7,0.7,1.9,1.1c0.2,0.5,0.1,1.4,0.9,2
			c0.8,0.6,1,1.6,1.9,1.4c0.8-0.2,0.5-0.7,1-0.9c0.1-0.1,0.1,0.1,0.5,0.1c0.4,0,0.6,0.3,1-0.3c0.4-0.7,0.4-0.7,1-0.3
			c0.6,0.3,1.2,0.5,1.6,0c0.4-0.5,0.8-1,1.2-0.4c0.6,0.8,1.2,0.6,1.7,0.4C78.6,18,78.5,17.4,79.1,17.2L79.1,17.2z M78.5,15.3
			c0-0.3,0.2-0.6,0.6-0.6c0.3,0,0.6,0.2,0.6,0.6c0,0.3-0.2,0.6-0.6,0.6C78.8,15.9,78.5,15.6,78.5,15.3 M85.5,15.9
			c0-0.1,0.1-0.3,0.3-0.3c0.1,0,0.3,0.1,0.3,0.3c0,0.1-0.1,0.3-0.3,0.3C85.6,16.1,85.5,16,85.5,15.9 M86.7,17.4
			c0.1,0.2,0.1,0.3,0.1,0.4c0,0.3-0.3,0.5-0.6,0.5c-0.2,0-0.3-0.2-0.4-0.4C86.2,17.8,86.5,17.6,86.7,17.4 M88.2,18.9
			c-0.7-0.5,0-1.1,0-1.1V18.9z M72.3,16.1c-0.1,0-0.3-0.1-0.3-0.3c0-0.1,0.1-0.3,0.3-0.3c0.1,0,0.3,0.1,0.3,0.3
			C72.5,16,72.4,16.1,72.3,16.1 M72.2,17.9c-0.1,0.2-0.2,0.4-0.4,0.4c-0.3,0-0.6-0.2-0.6-0.5c0-0.1,0-0.2,0.1-0.4
			C71.5,17.5,71.8,17.8,72.2,17.9 M69.8,17.8c0,0,0.7,0.5,0,1.1V17.8z"/>
	</g>
</g>
<g id="Layer_2">
	<g>
		<g>
			<path fill="#8D7646" d="M45.5,82.7c0.4,0.3,1.2,0.6,2,0.6c1.1,0,1.6-0.5,1.6-1.2c0-0.7-0.4-1.1-1.5-1.5c-1.5-0.5-2.2-1.3-2.2-2.3
				c0-1.3,1.1-2.4,2.8-2.4c0.8,0,1.5,0.2,2,0.5l-0.4,1.1c-0.3-0.2-0.9-0.5-1.7-0.5c-0.9,0-1.4,0.5-1.4,1.1c0,0.7,0.5,1,1.5,1.4
				c1.4,0.5,2.1,1.2,2.1,2.5c0,1.4-1.1,2.4-3,2.4c-0.9,0-1.7-0.2-2.3-0.6L45.5,82.7z"/>
			<path fill="#8D7646" d="M54,73.8c0,0.5-0.4,0.9-0.9,0.9c-0.5,0-0.9-0.4-0.9-0.9c0-0.5,0.4-0.9,0.9-0.9C53.7,72.8,54,73.2,54,73.8
				z M52.4,84.2V76h1.5v8.2H52.4z"/>
			<path fill="#8D7646" d="M56.3,78.3c0-0.8,0-1.5-0.1-2.2h1.3l0.1,1.3h0c0.4-0.8,1.3-1.5,2.7-1.5c1.1,0,2.9,0.7,2.9,3.5v4.9h-1.5
				v-4.7c0-1.3-0.5-2.4-1.9-2.4c-1,0-1.7,0.7-2,1.5c-0.1,0.2-0.1,0.4-0.1,0.7v4.9h-1.5V78.3z"/>
			<path fill="#8D7646" d="M71.2,83.9c-0.4,0.2-1.2,0.5-2.3,0.5c-2.5,0-4.1-1.7-4.1-4.2c0-2.5,1.7-4.3,4.4-4.3
				c0.9,0,1.7,0.2,2.1,0.4l-0.3,1.1c-0.4-0.2-0.9-0.4-1.7-0.4c-1.9,0-2.9,1.4-2.9,3.1c0,1.9,1.2,3,2.8,3c0.8,0,1.4-0.2,1.8-0.4
				L71.2,83.9z"/>
			<path fill="#8D7646" d="M73.7,80.4c0,2,1.3,2.8,2.8,2.8c1.1,0,1.7-0.2,2.3-0.4l0.3,1.1c-0.5,0.2-1.4,0.5-2.7,0.5
				c-2.5,0-4-1.7-4-4.1c0-2.5,1.4-4.4,3.8-4.4c2.7,0,3.4,2.3,3.4,3.8c0,0.3,0,0.5-0.1,0.7H73.7z M78,79.3c0-0.9-0.4-2.4-2.1-2.4
				c-1.5,0-2.2,1.4-2.3,2.4H78z"/>
			<path fill="#8D7646" d="M87,74.6L87,74.6l-1.9,1l-0.3-1.1l2.4-1.3h1.3v10.9H87V74.6z"/>
			<path fill="#8D7646" d="M90.9,81.4c0-1.4,0.8-2.4,2.2-2.9l0-0.1c-1.2-0.6-1.7-1.5-1.7-2.5c0-1.7,1.5-2.9,3.4-2.9
				c2.1,0,3.2,1.3,3.2,2.7c0,0.9-0.5,1.9-1.8,2.6v0.1c1.4,0.5,2.2,1.5,2.2,2.8c0,1.9-1.6,3.2-3.7,3.2C92.3,84.4,90.9,83,90.9,81.4z
				 M96.8,81.4c0-1.3-0.9-2-2.4-2.4c-1.3,0.4-2,1.2-2,2.3c-0.1,1.1,0.8,2.1,2.2,2.1C95.9,83.3,96.8,82.5,96.8,81.4z M92.7,75.9
				c0,1.1,0.8,1.7,2.1,2c0.9-0.3,1.7-1,1.7-2c0-0.9-0.5-1.8-1.9-1.8C93.4,74.1,92.7,74.9,92.7,75.9z"/>
			<path fill="#8D7646" d="M106.2,74.5H102l-0.4,2.8c0.3,0,0.5-0.1,0.9-0.1c0.8,0,1.7,0.2,2.4,0.6c0.9,0.5,1.6,1.4,1.6,2.8
				c0,2.1-1.7,3.7-4.1,3.7c-1.2,0-2.2-0.3-2.7-0.7l0.4-1.1c0.5,0.3,1.3,0.6,2.3,0.6c1.4,0,2.6-0.9,2.6-2.4c0-1.4-1-2.4-3.2-2.4
				c-0.6,0-1.1,0.1-1.5,0.1l0.7-5.3h5.2V74.5z"/>
			<path fill="#8D7646" d="M108.3,82.5c0.4,0.3,1.4,0.7,2.4,0.7c1.9,0,2.5-1.2,2.5-2.1c0-1.5-1.4-2.2-2.8-2.2h-0.8v-1.1h0.8
				c1.1,0,2.4-0.6,2.4-1.9c0-0.9-0.6-1.7-1.9-1.7c-0.9,0-1.7,0.4-2.2,0.7l-0.4-1.1c0.6-0.4,1.7-0.8,2.9-0.8c2.2,0,3.1,1.3,3.1,2.6
				c0,1.1-0.7,2.1-2,2.6v0c1.3,0.3,2.4,1.3,2.4,2.8c0,1.8-1.4,3.3-4,3.3c-1.2,0-2.3-0.4-2.8-0.7L108.3,82.5z"/>
		</g>
	</g>
</g>
</svg>
