<?xml version="1.0" encoding="utf-8"?>
<!-- Generator: Adobe Illustrator 22.0.0, SVG Export Plug-In . SVG Version: 6.00 Build 0)  -->
<svg version="1.0" id="Слой_1" xmlns="http://www.w3.org/2000/svg" xmlns:xlink="http://www.w3.org/1999/xlink" x="0px" y="0px"
	 viewBox="0 0 300 300" enable-background="new 0 0 300 300" xml:space="preserve">
<g>
	<path fill="#AB8E58" d="M159.3,213.1c4.7-11.4,11.9-18.7,23.5-21c7.2-1.4,13.3,0,18.6,5.4c9.8,10,19.8,19.8,29.7,29.8
		c8.2,8.4,8,17.4,0.1,26c-16.3,18-36.3,22.1-59.2,16.5c-28.3-7-52.4-21.7-74-40.7c-23.2-20.5-44.5-42.8-59.2-70.5
		c-10.5-19.8-14.6-40.7-8.9-62.8c3-11.9,10.2-21.2,19.6-28.8c6.7-5.4,15.4-5.4,21.6,0.6c11.4,10.9,22.8,21.8,33.3,33.6
		c3,3.3,4.3,9.8,3.6,14.4c-1.4,9.6-6.9,17.6-15.8,22.1c-4.7,2.4-4.8,5-3.4,9.4c8.4,26.7,26.5,44.8,50.7,57.3
		C145.7,207.6,152.3,210,159.3,213.1z"/>
	<path fill="#AB8E58" d="M139.8,26.9c71.7,4.2,128.4,61.8,131.6,134.2c0,1.1,0.1,2.2,0.1,3.3c0,8.7-4.5,14.1-11.9,14.3
		c-7.5,0.1-11.8-4.8-12.6-13.7c-0.7-8.3-1.2-16.6-3-24.7C232.6,89.5,186.4,52,134.4,50.8c-2.8-0.1-5.8-0.3-8.3-1.4
		c-5.2-2.2-7.5-6.6-6.9-12.2c0.7-5.5,3.9-9.4,9.5-10.2C132.2,26.5,135.8,26.9,139.8,26.9z"/>
	<path fill="#AB8E58" d="M141.5,74.2c44.8,2,81.8,40,82.4,84.8c0.1,8.2-4.4,13.7-11.5,14.1c-7.2,0.4-12.9-4.6-12.8-12.7
		c0.3-29.7-24.2-61.4-62.7-62.2c-7.2-0.2-12.2-5.4-12.2-12c0-6.8,5.4-11.8,12.9-12C138.9,74.2,140.2,74.2,141.5,74.2z"/>
</g>
</svg>
