<svg>
  <symbol viewBox="0 0 38 38" id="fb">
    <path fill="#5D5D5D" d="M19 0C8.5 0 0 8.5 0 19s8.5 19 19 19 19-8.5 19-19S29.5 0 19 0zm5.2 11.6h-2.8c-.5 0-1.1.2-1.1 1.2v2.6h3.8l-.4 4.4h-3.4v12.4h-5.1V19.7h-2.4v-4.4h2.4v-2.8c0-2 1-5.2 5.2-5.2h3.8v4.3z"></path>
  </symbol>
  <symbol viewBox="0 0 38 38" id="inst">
    <g fill="#5D5D5D">
      <path d="M20.3 15.8c-1.7-.7-3.8.1-4.5 1.8-.5 1.1-.5 2.2-.1 3.1.5 1.1 1.6 2 3.1 2.1 1.8.2 3.3-1.1 3.7-2.8.5-1.7-.7-3.6-2.2-4.2z"></path>
      <path d="M22.8 9.9c-2.9-.1-5.7 0-8.6.1-3.7.1-4.4 4.3-4.3 7.5v1.6c-.1 2.6 0 7.1 2.4 8.4 1 .5 2.2.6 3.3.5 1.3-.1 2.7-.1 4 0 1.9.1 3.7.2 5.5-.3 2.5-.6 3-1.9 3.2-4.1.1-1 0-2.2 0-3.4 0-2.7.6-7.4-1.7-9.4-1.1-.7-2.5-.8-3.8-.9zM22 24c-3 2.2-7.5.4-8.5-3.1-.1-.2-.1-.5-.2-.7-.3-1.8.5-4.7 2.2-5.8 3.5-2.2 6.5-.6 7.7.9.7.8 1.2 1.9 1.4 3 .4 2.2-.8 4.4-2.6 5.7zm3.3-9.4c-.8.2-2-.6-1.4-2 .3-.7 1-.9 1.9-.5.7.4.8 2.1-.5 2.5z"></path>
      <path d="M19 0C8.5 0 0 8.5 0 19s8.5 19 19 19 19-8.5 19-19S29.5 0 19 0zm11.1 19.1c0 1.4-.1 2.9 0 4.3.1 2.6-.9 5.1-3.5 6.2-3.2 1.2-7.1.6-10.4.6-1.4 0-2.9.1-4.3-.3-1.1-.3-1.8-.9-2.5-1.7-.3-.4-.5-.7-.7-1.2-.9-2.2-.7-4.2-.8-6.5-.1-1.3 0-2.6 0-4 0-1.8 0-3.4.7-5.1.7-1.7 3-3.1 4.8-3.2 3.7-.2 7.5-.6 11.2 0 1.4.2 2.9.7 4 1.8 1.3 1.4 1.7 3.4 1.7 5.4-.1 1.2-.2 2.5-.2 3.7z"></path>
    </g>
  </symbol>
  <symbol viewBox="0 0 38 38" id="tw">
    <path fill="#5D5D5D" d="M17.8 0c-3.9.2-7.6 1.7-10.6 4.1C4.3 6.5 2.1 9.6 1 13c-1.4 4.2-1.3 8.8.4 13 .3.7 1 2.1 1.4 2.7 1.6 2.7 3.8 4.9 6.6 6.6.7.4 2 1.1 2.7 1.4 4.5 1.8 9.5 1.8 14 0 .7-.3 2.1-1 2.7-1.4 2.7-1.6 4.9-3.8 6.6-6.6.4-.7 1.1-2 1.4-2.7 1.7-4.2 1.8-8.8.3-13.1-.5-1.6-1.4-3.3-2.4-4.7-2.4-3.4-5.9-6-9.7-7.2-2.3-.8-4.8-1.1-7.2-1zm7.4 10.4c.9.2 1.7.6 2.5 1.2.3.2.2.2 1 0 .6-.2 1.3-.4 1.9-.7.2-.1.5-.2.5-.2.1.1-.3.9-.6 1.3-.2.4-.8.9-1.2 1.2-.4.3-.4.3.5.1.4-.1 1.6-.5 1.9-.6.1 0-.1.2-.4.7-.3.4-1.3 1.4-1.7 1.6l-.3.2v.8c-.1 2.3-.4 3.9-1.3 5.8-.7 1.6-1.5 2.8-2.8 4.1-2.4 2.4-5.3 3.8-8.7 4.1h-2.7c-1.7-.2-3.2-.6-4.6-1.3-.5-.2-1.2-.6-1.5-.8l-.1-.1h1c1 0 1.5 0 2.3-.2.9-.2 1.8-.5 2.6-.9.4-.2 1.4-.8 1.4-.9 0 0-.1 0-.2-.1-1.6-.2-2.9-1-3.8-2.3-.2-.3-.4-.8-.5-1.1 0-.1 0-.1.1-.1.4.1 1.9 0 1.9-.1 0 0-.1 0-.1-.1-.5-.1-1.4-.6-1.9-1-.9-.8-1.5-1.8-1.7-2.9-.1-.3-.1-1 0-1 0 0 .1.1.3.1.4.2.9.3 1.4.4.2 0 .4.1.4.1l-.3-.3c-1.1-.9-1.7-2.1-1.8-3.6 0-.7 0-1.2.2-1.8.1-.4.4-1 .4-1l.2.2c1.4 1.6 2.8 2.8 4.4 3.6 1.6.8 3.4 1.3 5.1 1.4.5 0 .5 0 .5-.1-.1-.3-.2-1.3-.1-1.8.2-1 .6-1.8 1.3-2.6.8-.8 1.7-1.3 2.7-1.5.2 0 .4-.1.4-.1.2.2 1.1.2 1.4.3z"></path>
  </symbol>
  <symbol viewBox="0 0 38 38" id="youtube">
    <g transform="matrix(.1 0 0 -.1 0 1024)" fill="#5D5D5D">
      <path d="M377.2 10085c-10.3 54.7-43.9 101.9-91.9 129.6-32.5 18.7-70.2 27.5-107.8 25-62.8-4.2-120.2-40-151.7-94.7-22.6-39.1-30.5-85.7-22.1-129.9 10.3-54.7 43.9-101.9 91.9-129.6 39.1-22.6 85.7-30.5 129.9-22.1 30.3 5.7 58.2 18.4 82.3 37.4 36.3 28.6 60.8 68.9 69.4 114.3 4.4 22.7 4.4 47.4 0 70zm-156.8 76.5c.2.5 1.6.6 6.8.6h6.6v-29.6c0-24.7.1-29.8.6-31.1 1.3-3 4.6-2.4 8.4 1.4l2.4 2.4.1 28.3.1 28.3 6.7.1 6.7.1v-73.6h-13.6v7.6l-2.5-2.4c-4.7-4.5-8.1-6.1-12.7-6.1-4.7 0-7.3 1.8-8.8 6.3-.7 2.1-.7 5.4-.9 34.6 0 17.9 0 32.8.1 33.1zm-49.1-12.7c2.3 7.4 8 12.7 14.9 13.8 3.1.5 7.8.1 10.7-.9 3.3-1.1 6-3.2 8.3-6.2 4-5.4 4.8-11.9 4.4-34.7-.3-16.1-.6-18.9-2.8-23.3-2.5-5.2-8.1-9.1-14.1-9.6-6.9-.7-11.9.8-16.1 4.8-3 2.8-4.8 6.4-5.7 11.3-.9 4.9-.7 41.4.4 44.8zm-44.4 38.3h7.8l4.9-18.5c2.8-10.2 5.1-18.8 5.3-19.1.2-.3 2.4 7.4 4.9 17.1 2.5 9.7 4.7 18.3 4.9 19.1l.4 1.4H170l-.3-1.2c-.1-.7-4.1-13.8-8.8-29.3l-8.5-28.1v-40h-14.8v40.5l-1.8 6.9c-1.8 6.9-6.5 21.7-13.1 40.6-2 5.6-3.5 10.3-3.5 10.4-.1.1 3.4.2 7.7.2zm173.7-221.6c-1.8-19-3.6-24.5-10.2-31.1-6.1-6-9.6-7.4-22.4-8.5-21.8-1.9-48-2.6-86.9-2.3-44.6.4-69.2 1.8-76.2 4.4-7.2 2.8-13.4 8.8-16 15.9-3.3 8.8-4.9 26.8-4.9 55.4 0 23.9.9 37 3.2 48.9 1.1 5.5 2 8 4.6 12 3.3 5 7.9 8.6 13.6 10.7 5.6 2 28.2 3.6 60.1 4.2 13 .3 65.7-.2 76.2-.6 18-.7 31.4-1.8 35.7-2.7 1.2-.3 3.9-1.3 5.9-2.2 3-1.4 4.4-2.5 7.3-5.4 6.5-6.5 8.5-13 10.3-33.1 1.3-14.6 1.2-50.9-.3-65.6z"></path>
      <path d="M186.1 10101.2c2.9-2.7 6.8-1.8 8.8 2.1l1.1 2.2v39.8l-1.1 2.1c-.6 1.2-1.5 2.4-2.3 2.7-1.7.9-4.3.8-5.9-.2-.8-.5-.7-11-1.2-12.1-.8-1.8-1.9 6-2-11.3-.1-21 .1-23.1 2.6-25.3zM100.3 10042.8v-6.8h15.4v-83.6h14.8v83.6h15.8v13.6h-46v-6.8zM197.5 10001v-48.6h12.8v3.3c0 1.8.1 3.3.3 3.3.2 0 1.6-1.3 3.2-2.8 3.5-3.3 6.5-4.6 10.6-4.6 6 0 9.6 3.6 10.8 10.9.6 3.8.6 48.3 0 52.1-1.3 8.2-6.3 12.3-13.3 11-3.3-.6-5.5-1.8-8.8-4.9l-2.8-2.7v31.6h-12.8v-48.6zm22.4 12.1c.4-.3 1.3-1.4 1.8-2.5 1-1.9 1-2.4 1.1-20.7.2-21.2 0-23.1-2.6-25.5-1.2-1.1-1.6-1.2-3.7-1.1-1.7.1-2.9.6-4.2 1.5l-1.8 1.3-.1 22.2-.1 22.2 1.5 1.2c2.7 2.3 5.8 2.8 8.1 1.4zM262 10025.4c-4.9-.8-9.6-4-12.3-8.2-.7-1.2-1.8-3.7-2.3-5.6-.9-3.3-1-4.2-1-22.7 0-13.6.2-19.9.5-21.5 1.1-4.6 2.4-7.2 4.8-9.8 4.1-4.4 8.2-6.1 14.6-6.1s10.2 1.5 13.9 5.3c4.1 4.3 5.4 8.3 5.4 15.8v4.7h-13.1l-.3-4.6c-.5-7.2-1.8-9.4-6-9.4-2.8 0-4.5 1-5.7 3.5-.9 1.8-1 2.7-1.1 10.6l-.2 8.6h26.4v9.7c0 13.6-.9 18.3-4.4 23-4 5.3-11.9 8.1-19.2 6.7zm7.3-12.6c2.4-1.7 2.8-3.3 3-9.8l.2-6h-13.2v4.6c0 5.6.6 8.6 2.1 10.3 1.8 2.2 5.5 2.7 7.9.9zM148 9994.5c0-17.1.2-32 .4-33.9.9-6.8 3.6-9.4 9.6-9.1 4.2.2 7.3 1.7 11.4 5.5 1.6 1.5 3.1 2.8 3.2 2.8s.3-1.7.3-3.7v-3.7h12.8v72.6H173v-55.7l-2.3-2.5c-1.3-1.3-2.8-2.7-3.5-3-1.3-.7-3.8-.8-4.6-.3-1.4.8-1.4 3.1-1.4 32.1v29.3H148v-30.4z"></path>
    </g>
  </symbol>
  <symbol viewBox="0 0 300 300" id="briefcase">
    <path fill="#AB8E58" d="M297.4 92v165c-5.5 14.9-15.1 24.8-31.8 24.9-77.1.2-154.2.2-231.3 0-18.3 0-31.5-13.7-31.6-31.9-.1-50.8-.1-101.6 0-152.5 0-13.9 9.1-26.2 22-29.8 4.6-1.3 9.7-1.5 14.6-1.6 13.7-.2 27.4-.1 41-.1.5-2.5.9-4.2 1.3-5.9 4.6-23.5 16.4-35.6 39.8-40.4 19.2-4 38.5-3.9 57.8.1C202 24.6 213.9 37 218.3 60c.4 1.9.8 3.7 1.2 5.2 1.1.3 1.5.6 2 .6 12.2.2 24.5.2 36.8.2 22.9.1 30.3 4.9 39.1 26zM22.9 133.1c-.5.1-1 .2-1.5.4-.1 1.9-.3 3.9-.3 5.8v107.5c0 12.6 4.1 16.5 16.9 16.5h223.8c13.1 0 17-4 17-17.2V139.4c0-2-.3-4-.6-6.5-1.1.8-1.5 1-1.7 1.3-1 1.7-2.1 3.3-3 5-11.2 21.9-29 32.2-53.7 31.1-12.4-.6-24.9-.1-38.1-.1 0 3.8.1 6.7 0 9.6-.5 13.7-8.1 21.3-21.7 21.5-6.9.1-13.7.1-20.6 0-12.8-.3-20.4-7.8-21.1-20.7-.2-3.3-.3-6.6-.5-10.4-15.2 0-29.7.2-44.1 0-19.2-.3-33.7-8.9-43.8-25.2-2.5-3.9-4.7-7.9-7-11.9zm159.5 18.4c16.7 0 33.1.7 49.4-.3 9.9-.6 17.6-6.9 22.7-15.7 6.9-12.1 13.9-24.2 20.9-36.4 3.8-6.6 1.9-11.7-5.4-13.8-2.5-.8-5.3-.7-8-.7H38.2c-2.4 0-5-.1-7.3.4-7.6 1.9-9.9 7.4-6 14.1 6.9 12.1 13.9 24.2 20.9 36.4 4.9 8.6 12.4 14.9 22 15.5 16.5 1 33.2.3 50.1.3.2-1.5.4-3 .6-4.4 1.6-13.2 8.6-19.8 21.8-20 7.6-.1 15.2-.2 22.8.1 9.2.4 16.4 6.8 18.2 15.5.4 3 .6 5.9 1.1 9zm-76.3-85.9h87.8c.1-10-3.2-16.3-12.2-19.2-21.1-6.9-42.5-6.9-63.5 0-8.9 2.9-12.2 9.2-12.1 19.2zm56.5 117.2v-37.1h-25.2v37.1h25.2z"></path>
  </symbol>
  <symbol viewBox="0 0 300 300" id="cotalog">
    <g fill="#AB8E58">
      <path d="M262.7 219c-2 .1-3.7.3-5.3.3h-78.7c-6.4 0-7.2-.7-7.3-6.3-.2-6.3 1.6-8.4 7.5-8.5 21.2 0 42.5 0 63.7.1 6.2 0 7.2-.9 7.2-7.1V50.6c0-7.4-1-8.3-8.3-8.3H183c-16.8 0-27.1 10.2-27.1 26.8 0 48.5 0 96.9.1 145.4 0 3.9-1.2 5-5 5-10.7 0-10.7.1-10.7-10.6V68.2c0-15.9-10-25.8-26.2-25.8H55.6c-7.6 0-9 1.4-9 9v145.4c0 6.4 1.3 7.8 7.9 7.8h62.7c7.4 0 11.4 6.2 7.8 12.7-.7 1.3-3.7 2-5.7 2-18 .1-35.9.1-53.9.1H32.8V28.2h5.7c26.2 0 52.5.3 78.7-.2 8.4-.1 15 2.5 21.3 7.3 3.1 2.4 6.2 6.1 9.6 6.5 3 .3 6.4-3.3 9.5-5.3 9.3-5.6 18.7-9 30.1-8.6 24.8.8 49.7.3 75 .3V219zM32.3 237.9h8.3c27.3 0 54.5.3 81.8 0 8.4-.1 15.1 2.9 20.9 8.3 3.4 3.1 6.1 3.7 9.7.1 4.8-4.8 10.5-8.2 17.8-8.2h92.4c0 3.5.4 7-.2 10.4-.2 1.2-2.7 2.7-4.3 2.8-7.8.3-15.5.1-23.3.1h-50.7c-15.1 0-22.4 4.9-28.3 18.5-.5 1.2-2.3 2.3-3.6 2.6-1.8.5-3.8-.1-5.7.2-5.1.6-7.8-1.1-9-6.5-1.8-7.8-8.3-11.4-15.3-13.7-3.2-1-6.8-1.1-10.2-1.1-25.2 0-50.4 0-75.6.2-3.3 0-4.8-1-4.6-4.3 0-2.9-.1-5.8-.1-9.4z"></path>
    </g>
  </symbol>
  <symbol version="1" viewBox="0 0 160.5 84.6" id="logo">
    <g class="logo-title" fill="#FFF">
      <path d="M.3 40.4h10.3v3.1h.1c2.2-2.7 5.3-3.7 9.2-3.7 3 0 6.3 1.3 7.6 3.6.4-.3 2.6-3.6 9.5-3.6 7.2 0 9.6 4.1 9.6 7.9v16H35.9V51.1c0-2.2-.3-4.2-3.5-4.2-2.7 0-3.6 1.8-3.6 4.2v12.6H18.1V51.1c0-2.2-.3-4.2-3.5-4.2-2.7 0-3.6 1.8-3.6 4.2v12.6H.3V40.4zM62.7 64.3c-10.5 0-15.3-5.8-15.3-12.3 0-6.5 4.7-12.2 15.3-12.2C73.2 39.8 78 45.5 78 52c0 6.5-4.8 12.3-15.3 12.3m0-18c-4 0-4.6 3.3-4.6 5.8s.5 5.8 4.6 5.8c4 0 4.6-3.3 4.6-5.8 0-2.6-.6-5.8-4.6-5.8M78.9 40.4h10.3v3.7h.1c1.7-2.8 4-4.3 7.9-4.3 1.1 0 2.1.1 3.1.4V48c-1.1-.3-2-.6-4.2-.6-4.2 0-6.5 2.1-6.5 7.1v9.2H78.9V40.4zM118.5 47.2c-.1-.8-.5-1.3-1.2-1.8-.6-.4-1.5-.7-2.4-.7-1.5 0-3.2.3-3.2 1.8 0 .7.6 1 1.2 1.2 1.8.6 5.8.8 9.4 1.8 3.6.9 6.7 2.7 6.7 6.5 0 6.5-7.4 8.2-14.2 8.2-6.6 0-13.8-2.2-14-8.2H111c.1.8.5 1.5 1.3 2.1.5.4 1.6.7 2.9.7 1.4 0 3.6-.4 3.6-1.8 0-1.3-.9-1.8-5.9-2.5-8.1-1.2-11.4-3.3-11.4-7.3 0-5.9 7.6-7.4 13.2-7.4 6 0 13.3 1.4 13.6 7.4h-9.8zM158.4 40.5l-2.6 2.5c2.8 2.3 4.2 5.5 4.2 8.9 0 6.5-4.7 12.3-15.3 12.3-3.7 0-6.6-.7-9-1.9l-3 2.9-1.9-1.5 2.9-2.7c-2.9-2.3-4.3-5.6-4.3-9 0-6.5 4.7-12.2 15.3-12.2 3.7 0 6.7.7 9.1 2l2.7-2.6 1.9 1.3zm-16.8 16.2c.6.7 1.6 1.1 3.1 1.1 4 0 4.6-3.3 4.6-5.8 0-.8-.1-1.6-.3-2.4l-7.4 7.1zm6.2-9.3c-.6-.7-1.7-1.2-3.2-1.2-4 0-4.6 3.3-4.6 5.8 0 .9.1 1.8.3 2.6l7.5-7.2z"></path>
    </g>
    <g fill="#FFF">
      <path d="M38 33.8v-3.6h1c.7 0 .9.4.9.9 0 .4-.1.6-.5.8.5.1.6.4.6.8 0 .7-.4 1.1-1.1 1.1H38zm.4-2h.4c.5 0 .8-.1.8-.6 0-.4-.2-.6-.8-.6h-.4v1.2zm.7 1.7c.4 0 .6-.2.6-.7 0-.7-.5-.7-.9-.7h-.4v1.3h.7zM40.4 31.2h.4l.6 2.3.6-2.3h.4l-.8 2.5c0 .2-.2.5-.2.7-.1.2-.3.3-.6.3h-.3v-.3c.1 0 .2.1.3.1.4 0 .4-.3.5-.5l-.9-2.8zM45.8 33.8s-.1 0 0 0c-.4 0-.5 0-.6-.4-.1.2-.3.4-.6.4-.5 0-.7-.3-.7-.8 0-.1 0-.5.4-.6.2-.1.8-.3.8-.3.1-.1.1-.2.1-.3 0-.3-.1-.4-.4-.4-.4 0-.4.2-.4.5H44c0-.6.3-.8.8-.8.8 0 .7.7.7.7v1.5c0 .1 0 .2.1.2h.2v.3zm-.6-1.4l-.6.3c-.2.1-.2.3-.2.5 0 .3.1.4.4.4.1 0 .5-.1.5-.5v-.7zM46.7 34.7h-.4v-3.6h.4v.3c.1-.2.3-.4.6-.4.7 0 .9.7.9 1.2 0 .8-.1 1.6-.9 1.6-.3 0-.4-.1-.6-.3v1.2zm.5-3.3c-.5 0-.5.7-.5 1.1 0 .4 0 1.1.5 1.1.4 0 .5-.4.5-1.1 0-.4 0-1.1-.5-1.1zM49.1 34.7h-.4v-3.6h.4v.3c.1-.2.3-.4.6-.4.7 0 .9.7.9 1.2 0 .8-.1 1.6-.9 1.6-.3 0-.4-.1-.6-.3v1.2zm.5-3.3c-.5 0-.5.7-.5 1.1 0 .4 0 1.1.5 1.1.4 0 .5-.4.5-1.1.1-.4 0-1.1-.5-1.1zM52.1 33.9c-.6 0-1-.3-1-1.5 0-.8.3-1.3 1-1.3s1 .5 1 1.3c-.1 1.2-.4 1.5-1 1.5zm0-2.5c-.4 0-.6.3-.6 1.1 0 .6.1 1.1.6 1.1s.6-.4.6-1.1c-.1-.8-.2-1.1-.6-1.1zM53.6 30.7v-.5h.4v.5h-.4zm0 3.1v-2.7h.4v2.7h-.4zM55.1 31.5c.2-.2.4-.4.7-.4.4 0 .7.2.7.7v2.1h-.4V32c0-.3-.1-.5-.4-.5-.1 0-.3.1-.4.1-.2.1-.2.3-.2.5v1.8h-.4v-2.7h.4v.3zM57.6 31.2h.5v.3h-.4v1.8c0 .1 0 .2.2.2h.3v.3h-.4c-.2 0-.4 0-.4-.4v-1.9H57v-.3h.4v-.7h.4v.7zM58.9 33.8h-.4v-2.7h.4v.3c.1-.2.4-.4.6-.4.3 0 .5.2.6.4.2-.3.4-.4.7-.4.2 0 .4.1.5.2.2.2.2.5.2.6v1.9h-.4v-1.9c0-.3-.1-.5-.4-.5-.1 0-.3.1-.4.1-.2.1-.2.3-.2.5v1.8h-.4v-1.9c0-.3-.1-.5-.4-.5-.1 0-.3.1-.4.1-.2.1-.2.3-.2.5v1.9zM63.9 32.9c0 .5-.2 1-.8 1-.5 0-.9-.3-.9-1.4 0-.6.2-1.4.9-1.4.9 0 .8.8.8 1.4h-1.3c0 .4-.1 1 .5 1 .4 0 .5-.3.4-.6h.4zm-.4-.7c0-.3 0-.8-.4-.8s-.5.5-.5.8h.9zM64.9 31.5c.2-.2.4-.4.7-.4.4 0 .7.2.7.7v2.1h-.4V32c0-.3-.1-.5-.4-.5-.1 0-.3.1-.4.1-.2.1-.2.3-.2.5v1.8h-.4v-2.7h.4v.3zM67.4 31.2h.5v.3h-.4v1.8c0 .1 0 .2.2.2h.3v.3h-.4c-.2 0-.4 0-.4-.4v-1.9h-.4v-.3h.2v-.7h.4v.7zM70 31.2h.5v.3H70v1.8c0 .1 0 .2.2.2h.3v.3H70c-.2 0-.4 0-.4-.4v-1.9h-.4v-.3h.4v-.7h.4v.7zM71.8 33.9c-.6 0-1-.3-1-1.5 0-.8.3-1.3 1-1.3s1 .5 1 1.3c0 1.2-.4 1.5-1 1.5zm0-2.5c-.4 0-.6.3-.6 1.1 0 .6.1 1.1.6 1.1s.6-.4.6-1.1c0-.8-.2-1.1-.6-1.1zM74.3 30.2h2.3v.4h-.9v3.2h-.4v-3.2h-.9v-.4zM77.4 33.8H77v-3.6h.4v1.2c.2-.2.4-.4.7-.4.4 0 .7.2.7.7v2.1h-.4v-1.9c0-.3-.1-.5-.4-.5-.1 0-.3.1-.4.1-.2.1-.2.3-.2.5v1.8zM81.1 32.9c0 .5-.2 1-.8 1-.5 0-.9-.3-.9-1.4 0-.6.2-1.4.9-1.4.9 0 .8.8.8 1.4h-1.3c0 .4-.1 1 .5 1 .4 0 .5-.3.4-.6h.4zm-.4-.7c0-.3 0-.8-.4-.8s-.5.5-.5.8h.9zM83.4 33.8H83v-3.6h.9c.8 0 1.3.2 1.2 1 0 .4-.3.7-.7.8.5 0 .6.2.6.7 0 .3 0 .5.1.8 0 .1 0 .2.1.2v.1h-.5c-.1-.2-.1-.7-.1-.9 0-.4-.1-.7-.6-.7h-.7v1.6zm0-1.9h.6c.2 0 .7 0 .7-.7 0-.6-.5-.6-.8-.6h-.6v1.3zM86.8 33.9c-.6 0-1-.3-1-1.5 0-.8.3-1.3 1-1.3s1 .5 1 1.3c-.1 1.2-.4 1.5-1 1.5zm0-2.5c-.4 0-.6.3-.6 1.1 0 .6.1 1.1.6 1.1s.6-.4.6-1.1c-.1-.8-.2-1.1-.6-1.1zM88 31.2h.4l.6 2.3.6-2.3h.4l-.8 2.5c0 .2-.2.5-.2.7-.1.2-.3.3-.6.3h-.3v-.3c.1 0 .2.1.3.1.4 0 .4-.3.5-.5l-.9-2.8zM92.2 33.8s-.1 0 0 0c-.4 0-.5 0-.6-.4-.1.2-.3.4-.6.4-.5 0-.7-.3-.7-.8 0-.1 0-.5.4-.6.2-.1.8-.3.8-.3.1-.1.1-.2.1-.3 0-.3-.1-.4-.4-.4-.3 0-.4.2-.4.5h-.3c0-.6.3-.8.8-.8.8 0 .7.7.7.7v1.5c0 .1 0 .2.1.2h.2v.3zm-.6-1.4l-.6.3c-.2.1-.2.3-.2.5 0 .3.1.4.4.4.1 0 .5-.1.5-.5v-.7zM92.7 33.8v-3.6h.4v3.6h-.4zM95.1 33.8v-3.6h1c1.1 0 1.3.9 1.3 1.8s-.2 1.8-1.2 1.8h-1.1zm.4-.3h.7c.6 0 .8-.4.8-1.5 0-.8-.1-1.4-.8-1.4h-.7v2.9zM99.7 33.8s-.1 0 0 0c-.4 0-.5 0-.6-.4-.1.2-.3.4-.6.4-.5 0-.7-.3-.7-.8 0-.1 0-.5.4-.6.2-.1.8-.3.8-.3.1-.1.1-.2.1-.3 0-.3-.1-.4-.4-.4-.3 0-.4.2-.4.5H98c0-.6.3-.8.8-.8.8 0 .7.7.7.7v1.5c0 .1 0 .2.1.2h.2v.3zm-.6-1.4l-.6.3c-.2.1-.2.3-.2.5 0 .3.1.4.4.4.1 0 .5-.1.5-.5v-.7zM100.6 31.5c.2-.2.4-.4.7-.4.4 0 .7.2.7.7v2.1h-.4V32c0-.3-.1-.5-.4-.5-.1 0-.3.1-.4.1-.2.1-.2.3-.2.5v1.8h-.4v-2.7h.4v.3zM102.6 30.7v-.5h.4v.5h-.4zm0 3.1v-2.7h.4v2.7h-.4zM104.9 31.9c0-.3-.1-.5-.4-.5-.3 0-.4.1-.4.4 0 .3.3.4.6.5.4.2.8.3.8.8s-.4.8-.9.8c-.2 0-.5-.1-.7-.3-.2-.2-.2-.4-.2-.6h.4c0 .3.1.5.5.5.3 0 .5-.1.5-.4 0-.4-.4-.4-.7-.5-.4-.2-.7-.3-.7-.8s.3-.8.8-.8.8.2.8.8h-.4zM106.3 33.8h-.4v-3.6h.4v1.2c.2-.2.4-.4.7-.4.4 0 .7.2.7.7v2.1h-.4v-1.9c0-.3-.1-.5-.4-.5-.1 0-.3.1-.4.1-.2.1-.2.3-.2.5v1.8zM111.3 31.3c0-.4-.2-.8-.7-.8-.7 0-.7 1-.7 1.5s0 1.6.7 1.6c.5 0 .6-.4.6-.8v-.2h.4v.2c0 .3 0 .5-.2.8-.2.3-.4.4-.8.4-1.1 0-1.2-1.1-1.2-1.9 0-.8.1-1.8 1.2-1.8.7 0 1.1.5 1 1.1h-.3zM113.2 33.9c-.6 0-1-.3-1-1.5 0-.8.3-1.3 1-1.3s1 .5 1 1.3c-.1 1.2-.4 1.5-1 1.5zm0-2.5c-.4 0-.6.3-.6 1.1 0 .6.1 1.1.6 1.1s.6-.4.6-1.1c-.1-.8-.2-1.1-.6-1.1zM116.1 33.5c-.1.3-.4.4-.7.4-.4 0-.7-.2-.7-.7v-2.1h.4v2.1c0 .2.1.3.3.3.2 0 .4-.1.5-.2.1-.1.1-.3.1-.5v-1.7h.4v2.7h-.4v-.3zM117.6 31.6c.2-.3.4-.5.8-.5v.4c-.5-.1-.8.2-.8.7v1.6h-.4v-2.7h.4v.5zM119.3 31.2h.5v.3h-.5v1.8c0 .1 0 .2.2.2h.3v.3h-.4c-.2 0-.4 0-.4-.4v-1.9h-.4v-.3h.4v-.7h.4v.7z"></path>
    </g>
    <path fill="#8D7646" d="M79.1 19.4c-4 0-7.6.8-9 1.4-.3.1-.5.1-.6 0-.1-.1-.2-.4.2-.5 2.5-1.2 7.5-1.6 9.4-1.6h.1c1.9 0 7 .4 9.4 1.6.4.2.3.4.2.5-.1.1-.3.1-.6 0-1.5-.6-5.1-1.4-9.1-1.4zM79.2 23.7c-4 0-7.5.5-9 .9-.4.1-.5.1-.6 0-.1-.1-.2-.4.2-.5 2.6-.9 7.5-1.1 9.4-1.1h.1c1.9 0 7.2.4 9.4 1.1.4.1.3.4.2.5-.1.1-.3.1-.6 0-1.5-.3-5.1-.9-9.1-.9zM81.4 11.2s1.5.2 3.2-.7c1.4-.7 2.2-1.3 2.3-1.1.2.2-1.3 1-2 1.4-.7.3-2.1.8-3.5.4M81.1 13.2c-.3 0-.1-.2.1-.2.3.1 2.1.7 2.5 1 .1.1 0 .2-.1.2-.2-.1-2.1-.9-2.5-1M81.2 9.6c.1 0 .2-.1.2-.2s-.1-.2-.2-.2-.2.1-.2.2c.1.2.1.2.2.2M82 9.2c.1 0 .2-.1.2-.2s-.1-.2-.2-.2-.2.1-.2.2.1.2.2.2M82.8 8.6c.2 0 .3-.1.3-.3 0-.2-.1-.3-.3-.3-.2 0-.3.1-.3.3-.1.2.1.3.3.3M83.6 7.7c.2 0 .4-.2.4-.4s-.2-.4-.4-.4-.4.2-.4.4.2.4.4.4M84.7 6.8c.3 0 .5-.2.5-.5s-.2-.5-.5-.5-.5.2-.5.5c.1.3.3.5.5.5M86.4 6.4c.3 0 .5-.2.5-.5s-.2-.5-.5-.5-.5.2-.5.5.2.5.5.5M87.9 6.8c.3 0 .6-.3.6-.6s-.3-.6-.6-.6-.6.3-.6.6.3.6.6.6M89.3 7.9c.3 0 .6-.3.6-.6s-.3-.6-.6-.6-.6.3-.6.6c-.1.4.2.6.6.6M89.9 9.7c.3 0 .6-.3.6-.6s-.3-.6-.6-.6-.6.3-.6.6c-.1.3.2.6.6.6M89.6 11.2c.3 0 .5-.2.5-.5s-.2-.5-.5-.5-.5.2-.5.5c.1.3.3.5.5.5M89 12.2c.2 0 .4-.2.4-.4s-.2-.4-.4-.4-.4.2-.4.4c0 .3.2.4.4.4M88.2 13c.1 0 .3-.1.3-.3 0-.1-.1-.3-.3-.3-.1 0-.3.1-.3.3 0 .1.2.3.3.3"></path>
    <path fill="#8D7646" d="M82.3 11c.1 0 .2-.1.2-.2s-.1-.2-.2-.2-.2.1-.2.2.1.2.2.2M83.4 10.6c.1 0 .2-.1.2-.2s-.1-.2-.2-.2-.2.1-.2.2.1.2.2.2M84.5 10.1c.2 0 .3-.1.3-.3s-.1-.3-.3-.3c-.2 0-.3.1-.3.3s.1.3.3.3M85.6 9.4c.2 0 .3-.1.3-.3s-.1-.3-.3-.3c-.2 0-.3.1-.3.3s.2.3.3.3M86.9 8.7c.2 0 .4-.2.4-.4s-.2-.4-.4-.4-.4.2-.4.4.2.4.4.4M91.1 8.1c.4 0 .7-.3.7-.7s-.3-.7-.7-.7c-.4 0-.7.3-.7.7s.3.7.7.7M92.7 8.9c.4 0 .7-.3.7-.7 0-.4-.3-.7-.7-.7-.4 0-.7.3-.7.7 0 .4.3.7.7.7M93.9 10.4c.3 0 .6-.3.6-.6s-.3-.6-.6-.6-.6.3-.6.6.3.6.6.6M94.1 11.8c.3 0 .5-.2.5-.5s-.2-.5-.5-.5-.5.2-.5.5.2.5.5.5M93.7 13c.2 0 .4-.2.4-.4s-.2-.4-.4-.4-.4.2-.4.4c.1.3.2.4.4.4M93 14c.2 0 .4-.2.4-.4s-.2-.4-.4-.4-.4.2-.4.4c0 .3.2.4.4.4M79.9 9.3c.3-.1.7.4.7.6 0 .2 0 .4-.2.5-.1.1-.2.3 0 .4.1.1-.4.6-.6.6-.2 0-.6-1.9.1-2.1M76.6 11.1s-1.5.1-3.2-.7c-1.4-.7-2.2-1.3-2.3-1.1-.2.2 1.3 1 2 1.4.7.4 2.1.8 3.5.4M76.9 13.2c.3-.1.1-.3-.1-.2-.3.1-2.1.7-2.5 1-.1.1 0 .2.1.2.2-.1 2.1-.9 2.5-1M76.8 9.6c-.1 0-.2-.1-.2-.2s.1-.2.2-.2.2.1.2.2c-.1.1-.1.2-.2.2M76 9.2c-.1 0-.2-.1-.2-.2s.1-.2.2-.2.2.1.2.2-.1.2-.2.2M75.2 8.6c-.2 0-.3-.1-.3-.3 0-.2.1-.3.3-.3.2 0 .3.1.3.3.1.1-.1.3-.3.3M74.4 7.7c-.2 0-.4-.2-.4-.4s.2-.4.4-.4.4.2.4.4-.2.4-.4.4M73.3 6.8c-.3 0-.5-.2-.5-.5s.2-.5.5-.5.5.2.5.5c-.1.2-.3.5-.5.5M71.6 6.4c-.3 0-.5-.2-.5-.5s.2-.5.5-.5.5.2.5.5-.2.5-.5.5M70.1 6.7c-.3 0-.6-.3-.6-.6s.3-.6.6-.6.6.3.6.6c0 .4-.3.6-.6.6M68.7 7.9c-.3 0-.6-.3-.6-.6s.3-.6.6-.6.6.3.6.6-.2.6-.6.6M68.1 9.6c-.3 0-.6-.3-.6-.6s.3-.6.6-.6.6.3.6.6c.1.3-.2.6-.6.6M68.4 11.1c-.3 0-.5-.2-.5-.5s.2-.5.5-.5.5.2.5.5c-.1.3-.3.5-.5.5M69 12.2c-.2 0-.4-.2-.4-.4s.2-.4.4-.4.4.2.4.4c0 .3-.2.4-.4.4M69.8 12.9c-.1 0-.3-.1-.3-.3 0-.1.1-.3.3-.3.1 0 .3.1.3.3-.1.2-.2.3-.3.3"></path>
    <path fill="#8D7646" d="M75.7 10.9c-.1 0-.2-.1-.2-.2s.1-.2.2-.2.2.1.2.2-.1.2-.2.2M74.5 10.6c-.1 0-.2-.1-.2-.2s.1-.2.2-.2.2.1.2.2c.1.1 0 .2-.2.2M73.5 10.1c-.2 0-.3-.1-.3-.3s.1-.3.3-.3c.2 0 .3.1.3.3s-.1.3-.3.3M72.4 9.3c-.2 0-.4-.1-.4-.3 0-.2.1-.3.3-.3s.3.1.3.3c.1.2-.1.3-.2.3M71.1 8.6c-.2 0-.4-.2-.4-.4s.2-.4.4-.4.4.2.4.4-.2.4-.4.4M66.9 8.1c-.4 0-.7-.3-.7-.7 0-.4.3-.7.7-.7.4 0 .7.3.7.7 0 .4-.3.7-.7.7M65.3 8.9c-.4 0-.7-.3-.7-.7 0-.4.3-.7.7-.7.4 0 .7.3.7.7 0 .4-.3.7-.7.7M64.1 10.4c-.3 0-.6-.3-.6-.6s.3-.6.6-.6.6.3.6.6-.3.6-.6.6M63.9 11.7c-.3 0-.5-.2-.5-.5s.2-.5.5-.5.5.2.5.5-.2.5-.5.5M64.3 13c-.2 0-.4-.2-.4-.4s.2-.4.4-.4.4.2.4.4c-.1.2-.2.4-.4.4M65 14c-.2 0-.4-.2-.4-.4s.2-.4.4-.4.4.2.4.4-.2.4-.4.4M78.1 9.3c-.3-.1-.7.4-.7.6 0 .2 0 .4.2.5.1.1.2.3 0 .4-.1.1.4.6.6.6.2 0 .6-1.9-.1-2.1M79.1 7.8c-.1-.1-.4-.1-.5.2-.1.3-.4.7-.8.7s-.8-.4-.6-.8c.1-.4 1.2-.7 2-.7s1.9.4 2 .7c.2.4-.2.8-.6.8-.4 0-.7-.4-.8-.7-.3-.3-.5-.3-.7-.2zM79.7 5.3s1.4.2 1.4 1.2c0 .3-.6.3-1 .2-.4-.1-.8-.4-.4-1.4M78.5 5.2s-1.4.2-1.4 1.2c0 .3.6.3 1 .2.4 0 .8-.3.4-1.4M79.1 4.6c-.4 0-.2-.8-.3-1-.1-.1-.3-.3-.3-.5s.1-.2.3-.3c.2-.1 0-.5.3-.5s0 .4.3.5c.2.1.3.1.3.3 0 .2-.2.3-.3.5-.1.2.1 1-.3 1M79.1 1.1c.2 0 .4-.2.4-.4s-.2-.4-.4-.4-.4.2-.4.4.2.4.4.4M79.7 1.9c.1 0 .3-.1.3-.3s-.1-.3-.3-.3c-.1 0-.3.1-.3.3s.2.3.3.3M80.6 2.8c.1 0 .3-.1.3-.3 0-.1-.1-.3-.3-.3-.1 0-.3.1-.3.3 0 .2.1.3.3.3M81.5 3.3c.1 0 .3-.1.3-.3 0-.1-.1-.3-.3-.3-.1 0-.3.1-.3.3 0 .2.2.3.3.3M80.6 3.9c.1 0 .3-.1.3-.3 0-.1-.1-.3-.3-.3-.1 0-.3.1-.3.3 0 .2.1.3.3.3M78.5 1.9c-.1 0-.3-.1-.3-.3s.1-.3.3-.3c.1 0 .3.1.3.3s-.2.3-.3.3M77.6 2.8c-.1 0-.3-.1-.3-.3 0-.1.1-.3.3-.3.1 0 .3.1.3.3 0 .2-.1.3-.3.3M76.7 3.3c-.1 0-.3-.1-.3-.3 0-.1.1-.3.3-.3.1 0 .3.1.3.3 0 .2-.1.3-.3.3M77.6 3.9c-.1 0-.3-.1-.3-.3 0-.1.1-.3.3-.3.1 0 .3.1.3.3 0 .2-.1.3-.3.3M79.1 11.1c.1 0 .2-.1.2-.2s-.1-.2-.2-.2-.2.1-.2.2.1.2.2.2M79.3 9.4c.2 0 .3-.1.3-.3 0-.2-.1-.3-.3-.3h-.4c-.2 0-.3.1-.3.3 0 .2.1.3.3.3h.4z"></path>
    <path fill="#8D7646" d="M79.2 8.5c.1 0 .2-.1.2-.2s-.1-.2-.2-.2H79c-.1 0-.2.1-.2.2s.1.2.2.2h.2zM79.2 10.2c.1 0 .2-.1.2-.2s-.1-.2-.2-.2H79c-.1 0-.2.1-.2.2s.1.2.2.2h.2zM88.6 23.6c.4 0 .7-.5.7-1.1 0-.6-.3-1.1-.7-1.1-.4 0-.7.5-.7 1.1-.1.6.3 1.1.7 1.1M84.9 22.7l.7-1.1-.7-1.2-.8 1.2zM82.3 21c.3 0 .5-.2.5-.5s-.2-.5-.5-.5-.5.2-.5.5.3.5.5.5M82.4 22.6c.3 0 .5-.2.5-.5s-.2-.5-.5-.5-.5.2-.5.5.2.5.5.5M86.9 21.7c.3 0 .5-.2.5-.5s-.2-.5-.5-.5-.5.2-.5.5c0 .2.2.5.5.5M86.9 23.2c.3 0 .5-.2.5-.5s-.2-.5-.5-.5-.5.2-.5.5.2.5.5.5M69.7 23.5c-.4 0-.7-.5-.7-1.1 0-.6.3-1.1.7-1.1.4 0 .7.5.7 1.1 0 .6-.3 1.1-.7 1.1M73.4 22.7l-.8-1.1.8-1.2.7 1.2zM75.9 21c-.3 0-.5-.2-.5-.5s.2-.5.5-.5.5.2.5.5c0 .2-.2.5-.5.5M75.8 22.6c-.3 0-.5-.2-.5-.5s.2-.5.5-.5.5.2.5.5-.2.5-.5.5M71.4 21.6c-.3 0-.5-.2-.5-.5s.2-.5.5-.5.5.2.5.5c-.1.3-.3.5-.5.5M71.4 23.2c-.3 0-.5-.2-.5-.5s.2-.5.5-.5.5.2.5.5c-.1.2-.3.5-.5.5M79.1 22.5c-.7 0-1.5-.2-1.5-1.2 0-1.1.8-1.3 1.5-1.3s1.5.2 1.5 1.3c0 1-.8 1.2-1.5 1.2M79.1 25.4c2 0 6.5 0 8-.6l-.6-.2c-1.1.1-3.3.3-7.4.3-4.1 0-6.3-.1-7.4-.3l-.6.2c1.5.5 5.9.6 8 .6"></path>
    <path fill="#8D7646" d="M79.1 17.2c.5.2.4.8.8 1 .5.2 1.1.4 1.7-.4.5-.6.8 0 1.2.4.4.5 1 .4 1.6 0 .6-.3.6-.3 1 .3.4.7.6.4 1 .3.4 0 .4-.2.5-.1.4.1.2.7 1 .9.9.2 1.1-.8 1.9-1.4.8-.6.7-1.5.9-2 .2-.5 1.3-1 1.9-1.1.6-.1.3-.4.2-.5-.1-.1-.4-.3-.7-.6.3-.6 1.3-1.5.9-3.3-.7-2.5-2.1-2.3-2.2-2.2l.7.7c.1.1-.1.3.1.6.3.3.6.6.7 1.1.1.7-.4.6-.3.8.1.1.2.5.2.7-.1.3-.6.3-.6.8-.1.4.1.3-.2.9-.2.5-.5.4-1 .3-.2.4-.7.9-1.3 1.2-.7.4-.7.7-.9 1.2-.3-.3-.9-.2-.9-.3 0-.1.1-.4.1-.8 0-.3-.1-1.2 0-1.8 0-.4.4-.3.3-.5-.1-.1-.1-.3 0-.6-.1-.3 1-1.7 1.2-2.3.2-.5.5-1.8-.7-3-1.1-1.1-2.5-1-3.4-.3-.7.5-1.9 1.8-3.4 2.7.9.1 2.3-1.2 2.6-1.5.3-.1 1.4-1.6 2.9-1 1.2.4.9 1.4.8 1.4.1.1.5.7.3 1.2s-.7 1.8-1.1 2.5c-1 .1-1.4.9-1.9 1.6-.5.7-1.1.5-1.2.8-.3.9.7 2.3.5 2.6-.2.3-.3.5-1 .4-.7-.1-.7-.7-.3-1.5.4-.8-.2-1-.5-1.1-.3-.1-1-.1-.9.7.1 1.1-.1 1.6-.7 1.6s-1.3-.6-1.1-.7c.3-.1 1.1-1 1.3-1.2.3-.4.5-.8.1-1.5-.4-.6-.8-.7-1.3-.7.3-.8.4-1.2.1-1.5-.3-.3-.5-.1-.7-.3-.1-.3-.4-.4-.4-.4h.1s-.3.1-.4.4c-.2.2-.4 0-.7.3-.3.3-.1.7.1 1.5-.5-.1-.9 0-1.3.7s-.2 1.1.1 1.5c.2.2 1.1 1.1 1.3 1.2.3.1-.4.7-1.1.7-.6 0-.9-.5-.7-1.6.1-.8-.6-.8-.9-.7-.3.1-.8.3-.5 1.1.4.8.4 1.4-.3 1.5-.7.1-.8 0-1-.4-.2-.3.9-1.7.5-2.6-.1-.3-.7-.1-1.2-.8-.5-.7-.9-1.5-1.9-1.6-.5-.7-.9-2-1.1-2.5-.2-.5.1-1.1.3-1.2 0-.1-.4-1 .8-1.4 1.5-.5 2.6.9 2.9 1 .3.3 1.7 1.6 2.6 1.5-1.5-.9-2.7-2.2-3.4-2.7-.9-.6-2.3-.8-3.4.3-1.1 1.2-.9 2.5-.7 3 .3.6 1.4 2.1 1.2 2.3v.6c-.1.2.3.1.3.5v1.8c0 .3.1.7.1.8 0 .1-.6 0-.9.3-.3-.5-.2-.8-.9-1.2-.6-.4-1.1-.8-1.3-1.2-.5.1-.8.1-1-.3-.3-.6-.1-.5-.2-.9-.1-.5-.5-.5-.6-.8 0-.1.1-.5.2-.7.1-.1-.4-.1-.3-.8.1-.5.4-.9.7-1.1.2-.2 0-.4.1-.6.1-.2.3-.4.7-.7-.1-.1-1.5-.3-2.2 2.2-.4 1.8.6 2.7.9 3.3-.3.3-.5.5-.7.6-.1.1-.4.4.2.5.6.1 1.7.7 1.9 1.1.2.5.1 1.4.9 2 .8.6 1 1.6 1.9 1.4.8-.2.5-.7 1-.9.1-.1.1.1.5.1s.6.3 1-.3c.4-.7.4-.7 1-.3.6.3 1.2.5 1.6 0 .4-.5.8-1 1.2-.4.6.8 1.2.6 1.7.4.6-.2.5-.8 1.1-1zm-.6-1.9c0-.3.2-.6.6-.6.3 0 .6.2.6.6 0 .3-.2.6-.6.6-.3 0-.6-.3-.6-.6m7 .6c0-.1.1-.3.3-.3.1 0 .3.1.3.3 0 .1-.1.3-.3.3-.2-.1-.3-.2-.3-.3m1.2 1.5c.1.2.1.3.1.4 0 .3-.3.5-.6.5-.2 0-.3-.2-.4-.4.4-.1.7-.3.9-.5m1.5 1.5c-.7-.5 0-1.1 0-1.1v1.1zm-15.9-2.8c-.1 0-.3-.1-.3-.3 0-.1.1-.3.3-.3.1 0 .3.1.3.3-.1.2-.2.3-.3.3m-.1 1.8c-.1.2-.2.4-.4.4-.3 0-.6-.2-.6-.5 0-.1 0-.2.1-.4.2.1.5.4.9.5m-2.4-.1s.7.5 0 1.1v-1.1z"></path>
    <g>
      <g fill="#8D7646">
        <path d="M45.5 82.7c.4.3 1.2.6 2 .6 1.1 0 1.6-.5 1.6-1.2s-.4-1.1-1.5-1.5c-1.5-.5-2.2-1.3-2.2-2.3 0-1.3 1.1-2.4 2.8-2.4.8 0 1.5.2 2 .5l-.4 1.1c-.3-.2-.9-.5-1.7-.5-.9 0-1.4.5-1.4 1.1 0 .7.5 1 1.5 1.4 1.4.5 2.1 1.2 2.1 2.5 0 1.4-1.1 2.4-3 2.4-.9 0-1.7-.2-2.3-.6l.5-1.1zM54 73.8c0 .5-.4.9-.9.9s-.9-.4-.9-.9.4-.9.9-.9c.6-.1.9.3.9.9zm-1.6 10.4V76h1.5v8.2h-1.5zM56.3 78.3c0-.8 0-1.5-.1-2.2h1.3l.1 1.3c.4-.8 1.3-1.5 2.7-1.5 1.1 0 2.9.7 2.9 3.5v4.9h-1.5v-4.7c0-1.3-.5-2.4-1.9-2.4-1 0-1.7.7-2 1.5-.1.2-.1.4-.1.7v4.9h-1.5v-6zM71.2 83.9c-.4.2-1.2.5-2.3.5-2.5 0-4.1-1.7-4.1-4.2s1.7-4.3 4.4-4.3c.9 0 1.7.2 2.1.4l-.3 1.1c-.4-.2-.9-.4-1.7-.4-1.9 0-2.9 1.4-2.9 3.1 0 1.9 1.2 3 2.8 3 .8 0 1.4-.2 1.8-.4l.2 1.2zM73.7 80.4c0 2 1.3 2.8 2.8 2.8 1.1 0 1.7-.2 2.3-.4l.3 1.1c-.5.2-1.4.5-2.7.5-2.5 0-4-1.7-4-4.1 0-2.5 1.4-4.4 3.8-4.4 2.7 0 3.4 2.3 3.4 3.8 0 .3 0 .5-.1.7h-5.8zm4.3-1.1c0-.9-.4-2.4-2.1-2.4-1.5 0-2.2 1.4-2.3 2.4H78zM87 74.6l-1.9 1-.3-1.1 2.4-1.3h1.3v10.9H87v-9.5zM90.9 81.4c0-1.4.8-2.4 2.2-2.9v-.1c-1.2-.6-1.7-1.5-1.7-2.5 0-1.7 1.5-2.9 3.4-2.9 2.1 0 3.2 1.3 3.2 2.7 0 .9-.5 1.9-1.8 2.6v.1c1.4.5 2.2 1.5 2.2 2.8 0 1.9-1.6 3.2-3.7 3.2-2.4 0-3.8-1.4-3.8-3zm5.9 0c0-1.3-.9-2-2.4-2.4-1.3.4-2 1.2-2 2.3-.1 1.1.8 2.1 2.2 2.1 1.3-.1 2.2-.9 2.2-2zm-4.1-5.5c0 1.1.8 1.7 2.1 2 .9-.3 1.7-1 1.7-2 0-.9-.5-1.8-1.9-1.8-1.2 0-1.9.8-1.9 1.8zM106.2 74.5H102l-.4 2.8c.3 0 .5-.1.9-.1.8 0 1.7.2 2.4.6.9.5 1.6 1.4 1.6 2.8 0 2.1-1.7 3.7-4.1 3.7-1.2 0-2.2-.3-2.7-.7l.4-1.1c.5.3 1.3.6 2.3.6 1.4 0 2.6-.9 2.6-2.4 0-1.4-1-2.4-3.2-2.4-.6 0-1.1.1-1.5.1l.7-5.3h5.2v1.4zM108.3 82.5c.4.3 1.4.7 2.4.7 1.9 0 2.5-1.2 2.5-2.1 0-1.5-1.4-2.2-2.8-2.2h-.8v-1.1h.8c1.1 0 2.4-.6 2.4-1.9 0-.9-.6-1.7-1.9-1.7-.9 0-1.7.4-2.2.7l-.4-1.1c.6-.4 1.7-.8 2.9-.8 2.2 0 3.1 1.3 3.1 2.6 0 1.1-.7 2.1-2 2.6 1.3.3 2.4 1.3 2.4 2.8 0 1.8-1.4 3.3-4 3.3-1.2 0-2.3-.4-2.8-.7l.4-1.1z"></path>
      </g>
    </g>
  </symbol>
  <symbol viewBox="0 0 300 300" id="phone">
    <g fill="#AB8E58">
      <path d="M159.3 213.1c4.7-11.4 11.9-18.7 23.5-21 7.2-1.4 13.3 0 18.6 5.4 9.8 10 19.8 19.8 29.7 29.8 8.2 8.4 8 17.4.1 26-16.3 18-36.3 22.1-59.2 16.5-28.3-7-52.4-21.7-74-40.7-23.2-20.5-44.5-42.8-59.2-70.5-10.5-19.8-14.6-40.7-8.9-62.8 3-11.9 10.2-21.2 19.6-28.8 6.7-5.4 15.4-5.4 21.6.6 11.4 10.9 22.8 21.8 33.3 33.6 3 3.3 4.3 9.8 3.6 14.4-1.4 9.6-6.9 17.6-15.8 22.1-4.7 2.4-4.8 5-3.4 9.4 8.4 26.7 26.5 44.8 50.7 57.3 6.2 3.2 12.8 5.6 19.8 8.7zM139.8 26.9c71.7 4.2 128.4 61.8 131.6 134.2 0 1.1.1 2.2.1 3.3 0 8.7-4.5 14.1-11.9 14.3-7.5.1-11.8-4.8-12.6-13.7-.7-8.3-1.2-16.6-3-24.7-11.4-50.8-57.6-88.3-109.6-89.5-2.8-.1-5.8-.3-8.3-1.4-5.2-2.2-7.5-6.6-6.9-12.2.7-5.5 3.9-9.4 9.5-10.2 3.5-.5 7.1-.1 11.1-.1z"></path>
      <path d="M141.5 74.2c44.8 2 81.8 40 82.4 84.8.1 8.2-4.4 13.7-11.5 14.1-7.2.4-12.9-4.6-12.8-12.7.3-29.7-24.2-61.4-62.7-62.2-7.2-.2-12.2-5.4-12.2-12 0-6.8 5.4-11.8 12.9-12h3.9z"></path>
    </g>
  </symbol>
  <symbol viewBox="0 0 300 300" id="wherebuy">
    <g fill="#AB8E58">
      <path d="M149.7 28.1h11c9.8-.1 18.5 3.3 27 7.7 9.7 4.9 18.5 11 25.7 19.1 13.8 15.5 21.9 33.4 22.5 54.5.4 12.8-.9 25.4-5.9 37.3-4 9.7-9.4 18.6-16.7 26.3-3 3.2-5.2 2.3-11.7-4-2.6-2.5-3.2-5-.7-8 10-11.7 16.2-25 17.6-40.7 1.2-13-.6-25.6-6.5-36.9-10-19.4-25.5-32.3-47.2-38.2-17.9-4.8-34.7-2.1-50.3 6.1-17.1 8.9-28.8 23-35 41.9-5 15.3-4.1 30 1 44.7 2.6 7.4 6.3 14.3 11.6 20.2 5.5 6.1 3 14.1-5.3 16-1.7.4-4.6-.6-5.8-2-9.3-10.8-16.7-22.6-19-37-1.1-7-2.9-14-2.8-21 .4-32.8 15.1-58 42.8-75.3 14-8.9 29.3-12.4 47.7-10.7z"></path>
      <path d="M196 112.1c.4 28-22 47.8-48.8 47.5-26.9-.3-48.1-19.3-48.1-47.2 0-28.1 20.7-47 47.8-47.5 26.4-.6 49.1 18.5 49.1 47.2zm-17.7.1c1.7-17.8-16.2-30.6-30.3-30.7-17.1-.1-31.3 14.4-31.7 29.5-.5 18.2 15.3 31.9 31.4 32 14.3 0 32.3-12.5 30.6-30.8zM194.6 202.6c-.4.9-.6 1.8-1 2.4-4.2 6.5-8.5 13-12.8 19.5-5.5 8.4-10.9 16.8-16.3 25.2-4.5 7-9 14.1-13.5 21.1-2 3.1-4.6 2.7-7.2-1-3.2-4.7-6.4-9.5-9.4-14.3-7-10.9-13.8-21.8-20.8-32.7-3.5-5.5-7.1-11-10.8-16.4-2-2.9-1.6-5.3 1.1-7.2 2.5-1.8 5-3.7 7.8-4.8 1.3-.5 4 .4 4.8 1.5 4.3 6 8.3 12.2 12.3 18.4 5.1 7.8 10 15.8 15.2 23.5 2.7 4 5.1 3.8 7.6-.1 8.6-13.5 17.3-26.9 25.8-40.4 1.7-2.7 3.8-3.8 6.6-2.3 3.1 1.6 6 3.5 8.9 5.4.8.4 1.2 1.4 1.7 2.2z"></path>
    </g>
  </symbol>
</svg>