<?xml version="1.0" encoding="utf-8"?>
<!-- Generator: Adobe Illustrator 22.0.0, SVG Export Plug-In . SVG Version: 6.00 Build 0)  -->
<svg version="1.0" id="Слой_1" xmlns="http://www.w3.org/2000/svg" xmlns:xlink="http://www.w3.org/1999/xlink" x="0px" y="0px"
	 viewBox="0 0 300 300" enable-background="new 0 0 300 300" xml:space="preserve">
<g>
	<path fill="#AB8E58" d="M149.7,28.1c2.3,0,6.6,0,11,0c9.8-0.1,18.5,3.3,27,7.7c9.7,4.9,18.5,11,25.7,19.1
		c13.8,15.5,21.9,33.4,22.5,54.5c0.4,12.8-0.9,25.4-5.9,37.3c-4,9.7-9.4,18.6-16.7,26.3c-3,3.2-5.2,2.3-11.7-4c-2.6-2.5-3.2-5-0.7-8
		c10-11.7,16.2-25,17.6-40.7c1.2-13-0.6-25.6-6.5-36.9c-10-19.4-25.5-32.3-47.2-38.2c-17.9-4.8-34.7-2.1-50.3,6.1
		c-17.1,8.9-28.8,23-35,41.9c-5,15.3-4.1,30,1,44.7c2.6,7.4,6.3,14.3,11.6,20.2c5.5,6.1,3,14.1-5.3,16c-1.7,0.4-4.6-0.6-5.8-2
		c-9.3-10.8-16.7-22.6-19-37c-1.1-7-2.9-14-2.8-21c0.4-32.8,15.1-58,42.8-75.3C116,29.9,131.3,26.4,149.7,28.1z"/>
	<path fill="#AB8E58" d="M196,112.1c0.4,28-22,47.8-48.8,47.5c-26.9-0.3-48.1-19.3-48.1-47.2c0-28.1,20.7-47,47.8-47.5
		C173.3,64.3,196,83.4,196,112.1z M178.3,112.2c1.7-17.8-16.2-30.6-30.3-30.7c-17.1-0.1-31.3,14.4-31.7,29.5
		c-0.5,18.2,15.3,31.9,31.4,32C162,143,180,130.5,178.3,112.2z"/>
	<path fill="#AB8E58" d="M194.6,202.6c-0.4,0.9-0.6,1.8-1,2.4c-4.2,6.5-8.5,13-12.8,19.5c-5.5,8.4-10.9,16.8-16.3,25.2
		c-4.5,7-9,14.1-13.5,21.1c-2,3.1-4.6,2.7-7.2-1c-3.2-4.7-6.4-9.5-9.4-14.3c-7-10.9-13.8-21.8-20.8-32.7c-3.5-5.5-7.1-11-10.8-16.4
		c-2-2.9-1.6-5.3,1.1-7.2c2.5-1.8,5-3.7,7.8-4.8c1.3-0.5,4,0.4,4.8,1.5c4.3,6,8.3,12.2,12.3,18.4c5.1,7.8,10,15.8,15.2,23.5
		c2.7,4,5.1,3.8,7.6-0.1c8.6-13.5,17.3-26.9,25.8-40.4c1.7-2.7,3.8-3.8,6.6-2.3c3.1,1.6,6,3.5,8.9,5.4
		C193.7,200.8,194.1,201.8,194.6,202.6z"/>
</g>
</svg>
